<?xml version='1.0' encoding='UTF-8' standalone='no'?>
<svg width="576pt" viewBox="0 0 576 432" xmlns:xlink="http://www.w3.org/1999/xlink" xmlns="http://www.w3.org/2000/svg" height="432pt">
 <title>gl2ps_renderer figure</title>
 <desc>
Creator: GL2PS 1.4.0, (C) 1999-2017 C. Geuzaine
For: Octave
CreationDate: Mon Nov 11 20:09:34 2019
</desc>
 <defs/>
 <polygon points="0,0 576,0 576,432 0,432" fill="#ffffff"/>
 <g>
  <polygon points="0,432 576,432 576,0 0,0" shape-rendering="crispEdges" fill="#ffffff"/>
  <clipPath id="cp00576432">
   <polygon points="0,432 576,432 576,0 0,0"/>
  </clipPath>
  <g clip-path="url(#cp00576432)">
   <polygon points="74.88,119.416 260.922,119.416 260.922,32.4 74.88,32.4" shape-rendering="crispEdges" fill="#ffffff"/>
   <polyline stroke="#262626" points="74.88,119.416 74.88,32.4" stroke-opacity="0.15" stroke-linecap="butt" stroke-dasharray="16,0" stroke-width="0.5" stroke-linejoin="miter" fill="none"/>
   <polyline stroke="#262626" points="121.39,119.416 121.39,32.4" stroke-opacity="0.15" stroke-linecap="butt" stroke-dasharray="16,0" stroke-width="0.5" stroke-linejoin="miter" fill="none"/>
   <polyline stroke="#262626" points="167.901,119.416 167.901,32.4" stroke-opacity="0.15" stroke-linecap="butt" stroke-dasharray="16,0" stroke-width="0.5" stroke-linejoin="miter" fill="none"/>
   <polyline stroke="#262626" points="214.411,119.416 214.411,32.4" stroke-opacity="0.15" stroke-linecap="butt" stroke-dasharray="16,0" stroke-width="0.5" stroke-linejoin="miter" fill="none"/>
   <polyline stroke="#262626" points="260.922,119.416 260.922,32.4" stroke-opacity="0.15" stroke-linecap="butt" stroke-dasharray="16,0" stroke-width="0.5" stroke-linejoin="miter" fill="none"/>
   <polyline stroke="#262626" points="74.88,119.416 74.88,117.555" stroke-linecap="butt" stroke-width="0.5" stroke-linejoin="miter" fill="none"/>
   <polyline stroke="#262626" points="121.39,119.416 121.39,117.555" stroke-linecap="butt" stroke-width="0.5" stroke-linejoin="miter" fill="none"/>
   <polyline stroke="#262626" points="167.901,119.416 167.901,117.555" stroke-linecap="butt" stroke-width="0.5" stroke-linejoin="miter" fill="none"/>
   <polyline stroke="#262626" points="214.411,119.416 214.411,117.555" stroke-linecap="butt" stroke-width="0.5" stroke-linejoin="miter" fill="none"/>
   <polyline stroke="#262626" points="260.922,119.416 260.922,117.555" stroke-linecap="butt" stroke-width="0.5" stroke-linejoin="miter" fill="none"/>
   <text font-family="FreeSans" font-size="10" transform="translate(67.38,134.917) rotate(-0,7.5,-8)" xml:space="preserve" font-weight="normal" font-style="normal">
    <tspan x="0 3 9 " fill="rgb(38,38,38)" y="-0">-10</tspan>
   </text>
   <text font-family="FreeSans" font-size="10" transform="translate(116.89,134.917) rotate(-0,4.5,-8)" xml:space="preserve" font-weight="normal" font-style="normal">
    <tspan x="0 3 " fill="rgb(38,38,38)" y="-0">-5</tspan>
   </text>
   <text font-family="FreeSans" font-size="10" transform="translate(164.901,134.917) rotate(-0,3,-8)" xml:space="preserve" font-weight="normal" font-style="normal">
    <tspan x="0 " fill="rgb(38,38,38)" y="-0">0</tspan>
   </text>
   <text font-family="FreeSans" font-size="10" transform="translate(211.411,134.917) rotate(-0,3,-8)" xml:space="preserve" font-weight="normal" font-style="normal">
    <tspan x="0 " fill="rgb(38,38,38)" y="-0">5</tspan>
   </text>
   <text font-family="FreeSans" font-size="10" transform="translate(254.922,134.917) rotate(-0,6,-8)" xml:space="preserve" font-weight="normal" font-style="normal">
    <tspan x="0 6 " fill="rgb(38,38,38)" y="-0">10</tspan>
   </text>
   <polyline stroke="#262626" points="74.88,119.416 260.922,119.416" stroke-opacity="0.15" stroke-linecap="butt" stroke-dasharray="16,0" stroke-width="0.5" stroke-linejoin="miter" fill="none"/>
   <polyline stroke="#262626" points="74.88,102.013 260.922,102.013" stroke-opacity="0.15" stroke-linecap="butt" stroke-dasharray="16,0" stroke-width="0.5" stroke-linejoin="miter" fill="none"/>
   <polyline stroke="#262626" points="74.88,84.6095 260.922,84.6095" stroke-opacity="0.15" stroke-linecap="butt" stroke-dasharray="16,0" stroke-width="0.5" stroke-linejoin="miter" fill="none"/>
   <polyline stroke="#262626" points="74.88,67.2064 260.922,67.2064" stroke-opacity="0.15" stroke-linecap="butt" stroke-dasharray="16,0" stroke-width="0.5" stroke-linejoin="miter" fill="none"/>
   <polyline stroke="#262626" points="74.88,49.8032 260.922,49.8032" stroke-opacity="0.15" stroke-linecap="butt" stroke-dasharray="16,0" stroke-width="0.5" stroke-linejoin="miter" fill="none"/>
   <polyline stroke="#262626" points="74.88,32.4 260.922,32.4" stroke-opacity="0.15" stroke-linecap="butt" stroke-dasharray="16,0" stroke-width="0.5" stroke-linejoin="miter" fill="none"/>
   <polyline stroke="#262626" points="74.88,119.416 76.7408,119.416" stroke-linecap="butt" stroke-width="0.5" stroke-linejoin="miter" fill="none"/>
   <polyline stroke="#262626" points="74.88,102.013 76.7408,102.013" stroke-linecap="butt" stroke-width="0.5" stroke-linejoin="miter" fill="none"/>
   <polyline stroke="#262626" points="74.88,84.6095 76.7408,84.6095" stroke-linecap="butt" stroke-width="0.5" stroke-linejoin="miter" fill="none"/>
   <polyline stroke="#262626" points="74.88,67.2064 76.7408,67.2064" stroke-linecap="butt" stroke-width="0.5" stroke-linejoin="miter" fill="none"/>
   <polyline stroke="#262626" points="74.88,49.8032 76.7408,49.8032" stroke-linecap="butt" stroke-width="0.5" stroke-linejoin="miter" fill="none"/>
   <polyline stroke="#262626" points="74.88,32.4 76.7408,32.4" stroke-linecap="butt" stroke-width="0.5" stroke-linejoin="miter" fill="none"/>
   <text font-family="FreeSans" font-size="10" transform="translate(60.8789,123.416) rotate(-0,9,-4)" xml:space="preserve" font-weight="normal" font-style="normal">
    <tspan x="0 3 " fill="rgb(38,38,38)" y="-0">-1</tspan>
   </text>
   <text font-family="FreeSans" font-size="10" transform="translate(63.8789,106.013) rotate(-0,6,-4)" xml:space="preserve" font-weight="normal" font-style="normal">
    <tspan x="0 " fill="rgb(38,38,38)" y="-0">0</tspan>
   </text>
   <text font-family="FreeSans" font-size="10" transform="translate(63.8789,88.6095) rotate(-0,6,-4)" xml:space="preserve" font-weight="normal" font-style="normal">
    <tspan x="0 " fill="rgb(38,38,38)" y="-0">1</tspan>
   </text>
   <text font-family="FreeSans" font-size="10" transform="translate(63.8789,71.2064) rotate(-0,6,-4)" xml:space="preserve" font-weight="normal" font-style="normal">
    <tspan x="0 " fill="rgb(38,38,38)" y="-0">2</tspan>
   </text>
   <text font-family="FreeSans" font-size="10" transform="translate(63.8789,53.8032) rotate(-0,6,-4)" xml:space="preserve" font-weight="normal" font-style="normal">
    <tspan x="0 " fill="rgb(38,38,38)" y="-0">3</tspan>
   </text>
   <text font-family="FreeSans" font-size="10" transform="translate(63.8789,36.4) rotate(-0,6,-4)" xml:space="preserve" font-weight="normal" font-style="normal">
    <tspan x="0 " fill="rgb(38,38,38)" y="-0">4</tspan>
   </text>
   <polyline stroke="#262626" points="74.88,119.416 260.922,119.416" stroke-linecap="square" stroke-dasharray="16,0" stroke-width="0.5" stroke-linejoin="miter" fill="none"/>
   <polyline stroke="#262626" points="74.88,119.416 74.88,32.4" stroke-linecap="square" stroke-dasharray="16,0" stroke-width="0.5" stroke-linejoin="miter" fill="none"/>
   <text font-family="FreeSans" font-size="11" transform="translate(164.901,146.917) rotate(-0,3,-7)" xml:space="preserve" font-weight="normal" font-style="normal">
    <tspan x="0 " fill="rgb(38,38,38)" y="-0">n</tspan>
   </text>
   <text font-family="FreeSans" font-size="11" transform="translate(44.8789,75.9079) rotate(-90,11,0)" xml:space="preserve" font-weight="normal" font-style="normal">
    <tspan x="0 " fill="rgb(38,38,38)" y="-7">x</tspan>
    <tspan font-size="9" x="5 " fill="rgb(38,38,38)" y="-0">1</tspan>
    <tspan x="10 13 19 " fill="rgb(38,38,38)" y="-7">[n]</tspan>
   </text>
   <text font-family="FreeSans" font-size="11" transform="translate(161.901,22.4) rotate(-0,6,0)" xml:space="preserve" font-weight="bold" font-style="normal">
    <tspan x="0 " fill="rgb(0,0,0)" y="-7">X</tspan>
    <tspan font-size="9" x="7 " fill="rgb(0,0,0)" y="-0">1</tspan>
   </text>
   <polyline stroke="#0071bc" points="121.39,102.013 121.39,102.013" stroke-linecap="butt" stroke-width="0.5" stroke-linejoin="round" fill="none"/>
   <polyline stroke="#0071bc" points="130.693,102.013 130.693,102.013" stroke-linecap="butt" stroke-width="0.5" stroke-linejoin="round" fill="none"/>
   <polyline stroke="#0071bc" points="139.995,102.013 139.995,102.013" stroke-linecap="butt" stroke-width="0.5" stroke-linejoin="round" fill="none"/>
   <polyline stroke="#0071bc" points="149.297,102.013 149.297,49.8032" stroke-linecap="butt" stroke-width="0.5" stroke-linejoin="round" fill="none"/>
   <polyline stroke="#0071bc" points="158.599,102.013 158.599,102.013" stroke-linecap="butt" stroke-width="0.5" stroke-linejoin="round" fill="none"/>
   <polyline stroke="#0071bc" points="167.901,102.013 167.901,102.013" stroke-linecap="butt" stroke-width="0.5" stroke-linejoin="round" fill="none"/>
   <polyline stroke="#0071bc" points="177.203,102.013 177.203,67.2064" stroke-linecap="butt" stroke-width="0.5" stroke-linejoin="round" fill="none"/>
   <polyline stroke="#0071bc" points="186.505,102.013 186.505,102.013" stroke-linecap="butt" stroke-width="0.5" stroke-linejoin="round" fill="none"/>
   <polyline stroke="#0071bc" points="195.807,102.013 195.807,102.013" stroke-linecap="butt" stroke-width="0.5" stroke-linejoin="round" fill="none"/>
   <polyline stroke="#0071bc" points="205.109,102.013 205.109,119.416" stroke-linecap="butt" stroke-width="0.5" stroke-linejoin="round" fill="none"/>
   <polyline stroke="#0071bc" points="214.411,102.013 214.411,102.013" stroke-linecap="butt" stroke-width="0.5" stroke-linejoin="round" fill="none"/>
   <polyline stroke="#0071bc" points="223.714,102.013 223.714,102.013" stroke-linecap="butt" stroke-width="0.5" stroke-linejoin="round" fill="none"/>
   <polyline stroke="#0071bc" points="233.016,102.013 233.016,32.4" stroke-linecap="butt" stroke-width="0.5" stroke-linejoin="round" fill="none"/>
   <polyline stroke="#0071bc" points="242.318,102.013 242.318,102.013" stroke-linecap="butt" stroke-width="0.5" stroke-linejoin="round" fill="none"/>
   <polyline stroke="#0071bc" points="251.62,102.013 251.62,102.013" stroke-linecap="butt" stroke-width="0.5" stroke-linejoin="round" fill="none"/>
   <polyline stroke="#0071bc" points="260.922,102.013 260.922,102.013" stroke-linecap="butt" stroke-width="0.5" stroke-linejoin="round" fill="none"/>
   <polyline stroke="#0071bc" points="124.39,102.013 123.818,103.776 122.318,104.866 120.463,104.866 118.963,103.776 118.39,102.013 118.963,100.249 120.463,99.1595 122.318,99.1595 123.818,100.249 124.39,102.013" stroke-linecap="round" stroke-width="0.5" stroke-linejoin="round" fill="none"/>
   <polyline stroke="#0071bc" points="133.693,102.013 133.12,103.776 131.62,104.866 129.766,104.866 128.266,103.776 127.693,102.013 128.266,100.249 129.766,99.1595 131.62,99.1595 133.12,100.249 133.693,102.013" stroke-linecap="round" stroke-width="0.5" stroke-linejoin="round" fill="none"/>
   <polyline stroke="#0071bc" points="142.995,102.013 142.422,103.776 140.922,104.866 139.068,104.866 137.568,103.776 136.995,102.013 137.568,100.249 139.068,99.1595 140.922,99.1595 142.422,100.249 142.995,102.013" stroke-linecap="round" stroke-width="0.5" stroke-linejoin="round" fill="none"/>
   <polyline stroke="#0071bc" points="152.297,49.8032 151.724,51.5665 150.224,52.6563 148.37,52.6563 146.87,51.5665 146.297,49.8032 146.87,48.0398 148.37,46.95 150.224,46.95 151.724,48.0398 152.297,49.8032" stroke-linecap="round" stroke-width="0.5" stroke-linejoin="round" fill="none"/>
   <polyline stroke="#0071bc" points="161.599,102.013 161.026,103.776 159.526,104.866 157.672,104.866 156.172,103.776 155.599,102.013 156.172,100.249 157.672,99.1595 159.526,99.1595 161.026,100.249 161.599,102.013" stroke-linecap="round" stroke-width="0.5" stroke-linejoin="round" fill="none"/>
   <polyline stroke="#0071bc" points="170.901,102.013 170.328,103.776 168.828,104.866 166.974,104.866 165.474,103.776 164.901,102.013 165.474,100.249 166.974,99.1595 168.828,99.1595 170.328,100.249 170.901,102.013" stroke-linecap="round" stroke-width="0.5" stroke-linejoin="round" fill="none"/>
   <polyline stroke="#0071bc" points="180.203,67.2064 179.63,68.9697 178.13,70.0595 176.276,70.0595 174.776,68.9697 174.203,67.2064 174.776,65.443 176.276,64.3532 178.13,64.3532 179.63,65.443 180.203,67.2064" stroke-linecap="round" stroke-width="0.5" stroke-linejoin="round" fill="none"/>
   <polyline stroke="#0071bc" points="189.505,102.013 188.932,103.776 187.432,104.866 185.578,104.866 184.078,103.776 183.505,102.013 184.078,100.249 185.578,99.1595 187.432,99.1595 188.932,100.249 189.505,102.013" stroke-linecap="round" stroke-width="0.5" stroke-linejoin="round" fill="none"/>
   <polyline stroke="#0071bc" points="198.807,102.013 198.234,103.776 196.734,104.866 194.88,104.866 193.38,103.776 192.807,102.013 193.38,100.249 194.88,99.1595 196.734,99.1595 198.234,100.249 198.807,102.013" stroke-linecap="round" stroke-width="0.5" stroke-linejoin="round" fill="none"/>
   <polyline stroke="#0071bc" points="208.109,119.416 207.536,121.179 206.036,122.269 204.182,122.269 202.682,121.179 202.109,119.416 202.682,117.653 204.182,116.563 206.036,116.563 207.536,117.653 208.109,119.416" stroke-linecap="round" stroke-width="0.5" stroke-linejoin="round" fill="none"/>
   <polyline stroke="#0071bc" points="217.411,102.013 216.838,103.776 215.338,104.866 213.484,104.866 211.984,103.776 211.411,102.013 211.984,100.249 213.484,99.1595 215.338,99.1595 216.838,100.249 217.411,102.013" stroke-linecap="round" stroke-width="0.5" stroke-linejoin="round" fill="none"/>
   <polyline stroke="#0071bc" points="226.714,102.013 226.141,103.776 224.641,104.866 222.786,104.866 221.286,103.776 220.714,102.013 221.286,100.249 222.786,99.1595 224.641,99.1595 226.141,100.249 226.714,102.013" stroke-linecap="round" stroke-width="0.5" stroke-linejoin="round" fill="none"/>
   <polyline stroke="#0071bc" points="236.016,32.4 235.443,34.1634 233.943,35.2532 232.089,35.2532 230.589,34.1634 230.016,32.4 230.589,30.6366 232.089,29.5468 233.943,29.5468 235.443,30.6366 236.016,32.4" stroke-linecap="round" stroke-width="0.5" stroke-linejoin="round" fill="none"/>
   <polyline stroke="#0071bc" points="245.318,102.013 244.745,103.776 243.245,104.866 241.391,104.866 239.891,103.776 239.318,102.013 239.891,100.249 241.391,99.1595 243.245,99.1595 244.745,100.249 245.318,102.013" stroke-linecap="round" stroke-width="0.5" stroke-linejoin="round" fill="none"/>
   <polyline stroke="#0071bc" points="254.62,102.013 254.047,103.776 252.547,104.866 250.693,104.866 249.193,103.776 248.62,102.013 249.193,100.249 250.693,99.1595 252.547,99.1595 254.047,100.249 254.62,102.013" stroke-linecap="round" stroke-width="0.5" stroke-linejoin="round" fill="none"/>
   <polyline stroke="#0071bc" points="263.922,102.013 263.349,103.776 261.849,104.866 259.995,104.866 258.495,103.776 257.922,102.013 258.495,100.249 259.995,99.1595 261.849,99.1595 263.349,100.249 263.922,102.013" stroke-linecap="round" stroke-width="0.5" stroke-linejoin="round" fill="none"/>
   <polyline stroke="#000000" points="74.88,102.013 260.922,102.013" stroke-linecap="butt" stroke-width="0.5" stroke-linejoin="round" fill="none"/>
  </g>
 </g>
</svg>
