<?xml version='1.0' encoding='UTF-8' standalone='no'?>
<svg xmlns:xlink="http://www.w3.org/1999/xlink" viewBox="0 0 576 432" height="432pt" width="576pt" xmlns="http://www.w3.org/2000/svg">
 <title>gl2ps_renderer figure</title>
 <desc>
Creator: GL2PS 1.4.0, (C) 1999-2017 C. Geuzaine
For: Octave
CreationDate: Mon Nov 11 20:29:59 2019
</desc>
 <defs/>
 <polygon fill="#ffffff" points="0,0 576,0 576,432 0,432"/>
 <g>
  <polygon fill="#ffffff" shape-rendering="crispEdges" points="0,432 576,432 576,0 0,0"/>
  <clipPath id="cp00576432">
   <polygon points="0,432 576,432 576,0 0,0"/>
  </clipPath>
  <g clip-path="url(#cp00576432)">
   <polygon fill="#ffffff" shape-rendering="crispEdges" points="74.88,119.416 260.922,119.416 260.922,32.4 74.88,32.4"/>
   <polyline fill="none" stroke="#262626" stroke-opacity="0.15" stroke-dasharray="16,0" stroke-linecap="butt" stroke-linejoin="miter" stroke-width="0.5" points="74.88,119.416 74.88,32.4"/>
   <polyline fill="none" stroke="#262626" stroke-opacity="0.15" stroke-dasharray="16,0" stroke-linecap="butt" stroke-linejoin="miter" stroke-width="0.5" points="121.39,119.416 121.39,32.4"/>
   <polyline fill="none" stroke="#262626" stroke-opacity="0.15" stroke-dasharray="16,0" stroke-linecap="butt" stroke-linejoin="miter" stroke-width="0.5" points="167.901,119.416 167.901,32.4"/>
   <polyline fill="none" stroke="#262626" stroke-opacity="0.15" stroke-dasharray="16,0" stroke-linecap="butt" stroke-linejoin="miter" stroke-width="0.5" points="214.411,119.416 214.411,32.4"/>
   <polyline fill="none" stroke="#262626" stroke-opacity="0.15" stroke-dasharray="16,0" stroke-linecap="butt" stroke-linejoin="miter" stroke-width="0.5" points="260.922,119.416 260.922,32.4"/>
   <polyline fill="none" stroke="#262626" stroke-linecap="butt" stroke-linejoin="miter" stroke-width="0.5" points="74.88,119.416 74.88,117.555"/>
   <polyline fill="none" stroke="#262626" stroke-linecap="butt" stroke-linejoin="miter" stroke-width="0.5" points="121.39,119.416 121.39,117.555"/>
   <polyline fill="none" stroke="#262626" stroke-linecap="butt" stroke-linejoin="miter" stroke-width="0.5" points="167.901,119.416 167.901,117.555"/>
   <polyline fill="none" stroke="#262626" stroke-linecap="butt" stroke-linejoin="miter" stroke-width="0.5" points="214.411,119.416 214.411,117.555"/>
   <polyline fill="none" stroke="#262626" stroke-linecap="butt" stroke-linejoin="miter" stroke-width="0.5" points="260.922,119.416 260.922,117.555"/>
   <text font-family="FreeSans" xml:space="preserve" font-size="10" font-weight="normal" font-style="normal" transform="translate(67.38,134.917) rotate(-0,7.5,-8)">
    <tspan fill="rgb(38,38,38)" x="0 3 9 " y="-0">-10</tspan>
   </text>
   <text font-family="FreeSans" xml:space="preserve" font-size="10" font-weight="normal" font-style="normal" transform="translate(116.89,134.917) rotate(-0,4.5,-8)">
    <tspan fill="rgb(38,38,38)" x="0 3 " y="-0">-5</tspan>
   </text>
   <text font-family="FreeSans" xml:space="preserve" font-size="10" font-weight="normal" font-style="normal" transform="translate(164.901,134.917) rotate(-0,3,-8)">
    <tspan fill="rgb(38,38,38)" x="0 " y="-0">0</tspan>
   </text>
   <text font-family="FreeSans" xml:space="preserve" font-size="10" font-weight="normal" font-style="normal" transform="translate(211.411,134.917) rotate(-0,3,-8)">
    <tspan fill="rgb(38,38,38)" x="0 " y="-0">5</tspan>
   </text>
   <text font-family="FreeSans" xml:space="preserve" font-size="10" font-weight="normal" font-style="normal" transform="translate(254.922,134.917) rotate(-0,6,-8)">
    <tspan fill="rgb(38,38,38)" x="0 6 " y="-0">10</tspan>
   </text>
   <polyline fill="none" stroke="#262626" stroke-opacity="0.15" stroke-dasharray="16,0" stroke-linecap="butt" stroke-linejoin="miter" stroke-width="0.5" points="74.88,119.416 260.922,119.416"/>
   <polyline fill="none" stroke="#262626" stroke-opacity="0.15" stroke-dasharray="16,0" stroke-linecap="butt" stroke-linejoin="miter" stroke-width="0.5" points="74.88,102.013 260.922,102.013"/>
   <polyline fill="none" stroke="#262626" stroke-opacity="0.15" stroke-dasharray="16,0" stroke-linecap="butt" stroke-linejoin="miter" stroke-width="0.5" points="74.88,84.6095 260.922,84.6095"/>
   <polyline fill="none" stroke="#262626" stroke-opacity="0.15" stroke-dasharray="16,0" stroke-linecap="butt" stroke-linejoin="miter" stroke-width="0.5" points="74.88,67.2064 260.922,67.2064"/>
   <polyline fill="none" stroke="#262626" stroke-opacity="0.15" stroke-dasharray="16,0" stroke-linecap="butt" stroke-linejoin="miter" stroke-width="0.5" points="74.88,49.8032 260.922,49.8032"/>
   <polyline fill="none" stroke="#262626" stroke-opacity="0.15" stroke-dasharray="16,0" stroke-linecap="butt" stroke-linejoin="miter" stroke-width="0.5" points="74.88,32.4 260.922,32.4"/>
   <polyline fill="none" stroke="#262626" stroke-linecap="butt" stroke-linejoin="miter" stroke-width="0.5" points="74.88,119.416 76.7408,119.416"/>
   <polyline fill="none" stroke="#262626" stroke-linecap="butt" stroke-linejoin="miter" stroke-width="0.5" points="74.88,102.013 76.7408,102.013"/>
   <polyline fill="none" stroke="#262626" stroke-linecap="butt" stroke-linejoin="miter" stroke-width="0.5" points="74.88,84.6095 76.7408,84.6095"/>
   <polyline fill="none" stroke="#262626" stroke-linecap="butt" stroke-linejoin="miter" stroke-width="0.5" points="74.88,67.2064 76.7408,67.2064"/>
   <polyline fill="none" stroke="#262626" stroke-linecap="butt" stroke-linejoin="miter" stroke-width="0.5" points="74.88,49.8032 76.7408,49.8032"/>
   <polyline fill="none" stroke="#262626" stroke-linecap="butt" stroke-linejoin="miter" stroke-width="0.5" points="74.88,32.4 76.7408,32.4"/>
   <text font-family="FreeSans" xml:space="preserve" font-size="10" font-weight="normal" font-style="normal" transform="translate(60.8789,123.416) rotate(-0,9,-4)">
    <tspan fill="rgb(38,38,38)" x="0 3 " y="-0">-1</tspan>
   </text>
   <text font-family="FreeSans" xml:space="preserve" font-size="10" font-weight="normal" font-style="normal" transform="translate(63.8789,106.013) rotate(-0,6,-4)">
    <tspan fill="rgb(38,38,38)" x="0 " y="-0">0</tspan>
   </text>
   <text font-family="FreeSans" xml:space="preserve" font-size="10" font-weight="normal" font-style="normal" transform="translate(63.8789,88.6095) rotate(-0,6,-4)">
    <tspan fill="rgb(38,38,38)" x="0 " y="-0">1</tspan>
   </text>
   <text font-family="FreeSans" xml:space="preserve" font-size="10" font-weight="normal" font-style="normal" transform="translate(63.8789,71.2064) rotate(-0,6,-4)">
    <tspan fill="rgb(38,38,38)" x="0 " y="-0">2</tspan>
   </text>
   <text font-family="FreeSans" xml:space="preserve" font-size="10" font-weight="normal" font-style="normal" transform="translate(63.8789,53.8032) rotate(-0,6,-4)">
    <tspan fill="rgb(38,38,38)" x="0 " y="-0">3</tspan>
   </text>
   <text font-family="FreeSans" xml:space="preserve" font-size="10" font-weight="normal" font-style="normal" transform="translate(63.8789,36.4) rotate(-0,6,-4)">
    <tspan fill="rgb(38,38,38)" x="0 " y="-0">4</tspan>
   </text>
   <polyline fill="none" stroke="#262626" stroke-dasharray="16,0" stroke-linecap="square" stroke-linejoin="miter" stroke-width="0.5" points="74.88,119.416 260.922,119.416"/>
   <polyline fill="none" stroke="#262626" stroke-dasharray="16,0" stroke-linecap="square" stroke-linejoin="miter" stroke-width="0.5" points="74.88,119.416 74.88,32.4"/>
   <text font-family="FreeSans" xml:space="preserve" font-size="11" font-weight="normal" font-style="normal" transform="translate(164.901,146.917) rotate(-0,3,-7)">
    <tspan fill="rgb(38,38,38)" x="0 " y="-0">n</tspan>
   </text>
   <text font-family="FreeSans" xml:space="preserve" font-size="11" font-weight="normal" font-style="normal" transform="translate(44.8789,75.9079) rotate(-90,11,0)">
    <tspan fill="rgb(38,38,38)" x="0 " y="-7">x</tspan>
    <tspan fill="rgb(38,38,38)" x="5 " font-size="9" y="-0">1</tspan>
    <tspan fill="rgb(38,38,38)" x="10 13 19 " y="-7">[n]</tspan>
   </text>
   <text font-family="FreeSans" xml:space="preserve" font-size="11" font-weight="bold" font-style="normal" transform="translate(161.901,22.4) rotate(-0,6,0)">
    <tspan fill="rgb(0,0,0)" x="0 " y="-7">X</tspan>
    <tspan fill="rgb(0,0,0)" x="7 " font-size="9" y="-0">1</tspan>
   </text>
   <polyline fill="none" stroke="#0071bc" stroke-linecap="butt" stroke-linejoin="round" stroke-width="0.5" points="121.39,102.013 121.39,102.013"/>
   <polyline fill="none" stroke="#0071bc" stroke-linecap="butt" stroke-linejoin="round" stroke-width="0.5" points="130.693,102.013 130.693,102.013"/>
   <polyline fill="none" stroke="#0071bc" stroke-linecap="butt" stroke-linejoin="round" stroke-width="0.5" points="139.995,102.013 139.995,102.013"/>
   <polyline fill="none" stroke="#0071bc" stroke-linecap="butt" stroke-linejoin="round" stroke-width="0.5" points="149.297,102.013 149.297,49.8032"/>
   <polyline fill="none" stroke="#0071bc" stroke-linecap="butt" stroke-linejoin="round" stroke-width="0.5" points="158.599,102.013 158.599,102.013"/>
   <polyline fill="none" stroke="#0071bc" stroke-linecap="butt" stroke-linejoin="round" stroke-width="0.5" points="167.901,102.013 167.901,102.013"/>
   <polyline fill="none" stroke="#0071bc" stroke-linecap="butt" stroke-linejoin="round" stroke-width="0.5" points="177.203,102.013 177.203,67.2064"/>
   <polyline fill="none" stroke="#0071bc" stroke-linecap="butt" stroke-linejoin="round" stroke-width="0.5" points="186.505,102.013 186.505,102.013"/>
   <polyline fill="none" stroke="#0071bc" stroke-linecap="butt" stroke-linejoin="round" stroke-width="0.5" points="195.807,102.013 195.807,102.013"/>
   <polyline fill="none" stroke="#0071bc" stroke-linecap="butt" stroke-linejoin="round" stroke-width="0.5" points="205.109,102.013 205.109,119.416"/>
   <polyline fill="none" stroke="#0071bc" stroke-linecap="butt" stroke-linejoin="round" stroke-width="0.5" points="214.411,102.013 214.411,102.013"/>
   <polyline fill="none" stroke="#0071bc" stroke-linecap="butt" stroke-linejoin="round" stroke-width="0.5" points="223.714,102.013 223.714,102.013"/>
   <polyline fill="none" stroke="#0071bc" stroke-linecap="butt" stroke-linejoin="round" stroke-width="0.5" points="233.016,102.013 233.016,32.4"/>
   <polyline fill="none" stroke="#0071bc" stroke-linecap="butt" stroke-linejoin="round" stroke-width="0.5" points="242.318,102.013 242.318,102.013"/>
   <polyline fill="none" stroke="#0071bc" stroke-linecap="butt" stroke-linejoin="round" stroke-width="0.5" points="251.62,102.013 251.62,102.013"/>
   <polyline fill="none" stroke="#0071bc" stroke-linecap="butt" stroke-linejoin="round" stroke-width="0.5" points="260.922,102.013 260.922,102.013"/>
   <polyline fill="none" stroke="#0071bc" stroke-linecap="round" stroke-linejoin="round" stroke-width="0.5" points="124.39,102.013 123.818,103.776 122.318,104.866 120.463,104.866 118.963,103.776 118.39,102.013 118.963,100.249 120.463,99.1595 122.318,99.1595 123.818,100.249 124.39,102.013"/>
   <polyline fill="none" stroke="#0071bc" stroke-linecap="round" stroke-linejoin="round" stroke-width="0.5" points="133.693,102.013 133.12,103.776 131.62,104.866 129.766,104.866 128.266,103.776 127.693,102.013 128.266,100.249 129.766,99.1595 131.62,99.1595 133.12,100.249 133.693,102.013"/>
   <polyline fill="none" stroke="#0071bc" stroke-linecap="round" stroke-linejoin="round" stroke-width="0.5" points="142.995,102.013 142.422,103.776 140.922,104.866 139.068,104.866 137.568,103.776 136.995,102.013 137.568,100.249 139.068,99.1595 140.922,99.1595 142.422,100.249 142.995,102.013"/>
   <polyline fill="none" stroke="#0071bc" stroke-linecap="round" stroke-linejoin="round" stroke-width="0.5" points="152.297,49.8032 151.724,51.5665 150.224,52.6563 148.37,52.6563 146.87,51.5665 146.297,49.8032 146.87,48.0398 148.37,46.95 150.224,46.95 151.724,48.0398 152.297,49.8032"/>
   <polyline fill="none" stroke="#0071bc" stroke-linecap="round" stroke-linejoin="round" stroke-width="0.5" points="161.599,102.013 161.026,103.776 159.526,104.866 157.672,104.866 156.172,103.776 155.599,102.013 156.172,100.249 157.672,99.1595 159.526,99.1595 161.026,100.249 161.599,102.013"/>
   <polyline fill="none" stroke="#0071bc" stroke-linecap="round" stroke-linejoin="round" stroke-width="0.5" points="170.901,102.013 170.328,103.776 168.828,104.866 166.974,104.866 165.474,103.776 164.901,102.013 165.474,100.249 166.974,99.1595 168.828,99.1595 170.328,100.249 170.901,102.013"/>
   <polyline fill="none" stroke="#0071bc" stroke-linecap="round" stroke-linejoin="round" stroke-width="0.5" points="180.203,67.2064 179.63,68.9697 178.13,70.0595 176.276,70.0595 174.776,68.9697 174.203,67.2064 174.776,65.443 176.276,64.3532 178.13,64.3532 179.63,65.443 180.203,67.2064"/>
   <polyline fill="none" stroke="#0071bc" stroke-linecap="round" stroke-linejoin="round" stroke-width="0.5" points="189.505,102.013 188.932,103.776 187.432,104.866 185.578,104.866 184.078,103.776 183.505,102.013 184.078,100.249 185.578,99.1595 187.432,99.1595 188.932,100.249 189.505,102.013"/>
   <polyline fill="none" stroke="#0071bc" stroke-linecap="round" stroke-linejoin="round" stroke-width="0.5" points="198.807,102.013 198.234,103.776 196.734,104.866 194.88,104.866 193.38,103.776 192.807,102.013 193.38,100.249 194.88,99.1595 196.734,99.1595 198.234,100.249 198.807,102.013"/>
   <polyline fill="none" stroke="#0071bc" stroke-linecap="round" stroke-linejoin="round" stroke-width="0.5" points="208.109,119.416 207.536,121.179 206.036,122.269 204.182,122.269 202.682,121.179 202.109,119.416 202.682,117.653 204.182,116.563 206.036,116.563 207.536,117.653 208.109,119.416"/>
   <polyline fill="none" stroke="#0071bc" stroke-linecap="round" stroke-linejoin="round" stroke-width="0.5" points="217.411,102.013 216.838,103.776 215.338,104.866 213.484,104.866 211.984,103.776 211.411,102.013 211.984,100.249 213.484,99.1595 215.338,99.1595 216.838,100.249 217.411,102.013"/>
   <polyline fill="none" stroke="#0071bc" stroke-linecap="round" stroke-linejoin="round" stroke-width="0.5" points="226.714,102.013 226.141,103.776 224.641,104.866 222.786,104.866 221.286,103.776 220.714,102.013 221.286,100.249 222.786,99.1595 224.641,99.1595 226.141,100.249 226.714,102.013"/>
   <polyline fill="none" stroke="#0071bc" stroke-linecap="round" stroke-linejoin="round" stroke-width="0.5" points="236.016,32.4 235.443,34.1634 233.943,35.2532 232.089,35.2532 230.589,34.1634 230.016,32.4 230.589,30.6366 232.089,29.5468 233.943,29.5468 235.443,30.6366 236.016,32.4"/>
   <polyline fill="none" stroke="#0071bc" stroke-linecap="round" stroke-linejoin="round" stroke-width="0.5" points="245.318,102.013 244.745,103.776 243.245,104.866 241.391,104.866 239.891,103.776 239.318,102.013 239.891,100.249 241.391,99.1595 243.245,99.1595 244.745,100.249 245.318,102.013"/>
   <polyline fill="none" stroke="#0071bc" stroke-linecap="round" stroke-linejoin="round" stroke-width="0.5" points="254.62,102.013 254.047,103.776 252.547,104.866 250.693,104.866 249.193,103.776 248.62,102.013 249.193,100.249 250.693,99.1595 252.547,99.1595 254.047,100.249 254.62,102.013"/>
   <polyline fill="none" stroke="#0071bc" stroke-linecap="round" stroke-linejoin="round" stroke-width="0.5" points="263.922,102.013 263.349,103.776 261.849,104.866 259.995,104.866 258.495,103.776 257.922,102.013 258.495,100.249 259.995,99.1595 261.849,99.1595 263.349,100.249 263.922,102.013"/>
   <polyline fill="none" stroke="#000000" stroke-linecap="butt" stroke-linejoin="round" stroke-width="0.5" points="74.88,102.013 260.922,102.013"/>
  </g>
  <clipPath id="cp00576432">
   <polygon points="0,432 576,432 576,0 0,0"/>
  </clipPath>
  <g clip-path="url(#cp00576432)">
   <polygon fill="#ffffff" shape-rendering="crispEdges" points="335.238,119.363 521.28,119.363 521.28,32.4 335.238,32.4"/>
   <polyline fill="none" stroke="#262626" stroke-opacity="0.15" stroke-dasharray="16,0" stroke-linecap="butt" stroke-linejoin="miter" stroke-width="0.5" points="335.238,119.363 335.238,32.4"/>
   <polyline fill="none" stroke="#262626" stroke-opacity="0.15" stroke-dasharray="16,0" stroke-linecap="butt" stroke-linejoin="miter" stroke-width="0.5" points="381.749,119.363 381.749,32.4"/>
   <polyline fill="none" stroke="#262626" stroke-opacity="0.15" stroke-dasharray="16,0" stroke-linecap="butt" stroke-linejoin="miter" stroke-width="0.5" points="428.259,119.363 428.259,32.4"/>
   <polyline fill="none" stroke="#262626" stroke-opacity="0.15" stroke-dasharray="16,0" stroke-linecap="butt" stroke-linejoin="miter" stroke-width="0.5" points="474.77,119.363 474.77,32.4"/>
   <polyline fill="none" stroke="#262626" stroke-opacity="0.15" stroke-dasharray="16,0" stroke-linecap="butt" stroke-linejoin="miter" stroke-width="0.5" points="521.28,119.363 521.28,32.4"/>
   <polyline fill="none" stroke="#262626" stroke-linecap="butt" stroke-linejoin="miter" stroke-width="0.5" points="335.238,119.363 335.238,117.503"/>
   <polyline fill="none" stroke="#262626" stroke-linecap="butt" stroke-linejoin="miter" stroke-width="0.5" points="381.749,119.363 381.749,117.503"/>
   <polyline fill="none" stroke="#262626" stroke-linecap="butt" stroke-linejoin="miter" stroke-width="0.5" points="428.259,119.363 428.259,117.503"/>
   <polyline fill="none" stroke="#262626" stroke-linecap="butt" stroke-linejoin="miter" stroke-width="0.5" points="474.77,119.363 474.77,117.503"/>
   <polyline fill="none" stroke="#262626" stroke-linecap="butt" stroke-linejoin="miter" stroke-width="0.5" points="521.28,119.363 521.28,117.503"/>
   <text font-family="FreeSans" xml:space="preserve" font-size="10" font-weight="normal" font-style="normal" transform="translate(327.738,134.859) rotate(-0,7.5,-8)">
    <tspan fill="rgb(38,38,38)" x="0 3 9 " y="-0">-10</tspan>
   </text>
   <text font-family="FreeSans" xml:space="preserve" font-size="10" font-weight="normal" font-style="normal" transform="translate(377.249,134.859) rotate(-0,4.5,-8)">
    <tspan fill="rgb(38,38,38)" x="0 3 " y="-0">-5</tspan>
   </text>
   <text font-family="FreeSans" xml:space="preserve" font-size="10" font-weight="normal" font-style="normal" transform="translate(425.259,134.859) rotate(-0,3,-8)">
    <tspan fill="rgb(38,38,38)" x="0 " y="-0">0</tspan>
   </text>
   <text font-family="FreeSans" xml:space="preserve" font-size="10" font-weight="normal" font-style="normal" transform="translate(471.77,134.859) rotate(-0,3,-8)">
    <tspan fill="rgb(38,38,38)" x="0 " y="-0">5</tspan>
   </text>
   <text font-family="FreeSans" xml:space="preserve" font-size="10" font-weight="normal" font-style="normal" transform="translate(515.28,134.859) rotate(-0,6,-8)">
    <tspan fill="rgb(38,38,38)" x="0 6 " y="-0">10</tspan>
   </text>
   <polyline fill="none" stroke="#262626" stroke-opacity="0.15" stroke-dasharray="16,0" stroke-linecap="butt" stroke-linejoin="miter" stroke-width="0.5" points="335.238,119.363 521.28,119.363"/>
   <polyline fill="none" stroke="#262626" stroke-opacity="0.15" stroke-dasharray="16,0" stroke-linecap="butt" stroke-linejoin="miter" stroke-width="0.5" points="335.238,101.97 521.28,101.97"/>
   <polyline fill="none" stroke="#262626" stroke-opacity="0.15" stroke-dasharray="16,0" stroke-linecap="butt" stroke-linejoin="miter" stroke-width="0.5" points="335.238,84.5775 521.28,84.5775"/>
   <polyline fill="none" stroke="#262626" stroke-opacity="0.15" stroke-dasharray="16,0" stroke-linecap="butt" stroke-linejoin="miter" stroke-width="0.5" points="335.238,67.185 521.28,67.185"/>
   <polyline fill="none" stroke="#262626" stroke-opacity="0.15" stroke-dasharray="16,0" stroke-linecap="butt" stroke-linejoin="miter" stroke-width="0.5" points="335.238,49.7925 521.28,49.7925"/>
   <polyline fill="none" stroke="#262626" stroke-opacity="0.15" stroke-dasharray="16,0" stroke-linecap="butt" stroke-linejoin="miter" stroke-width="0.5" points="335.238,32.4 521.28,32.4"/>
   <polyline fill="none" stroke="#262626" stroke-linecap="butt" stroke-linejoin="miter" stroke-width="0.5" points="335.238,119.363 337.099,119.363"/>
   <polyline fill="none" stroke="#262626" stroke-linecap="butt" stroke-linejoin="miter" stroke-width="0.5" points="335.238,101.97 337.099,101.97"/>
   <polyline fill="none" stroke="#262626" stroke-linecap="butt" stroke-linejoin="miter" stroke-width="0.5" points="335.238,84.5775 337.099,84.5775"/>
   <polyline fill="none" stroke="#262626" stroke-linecap="butt" stroke-linejoin="miter" stroke-width="0.5" points="335.238,67.185 337.099,67.185"/>
   <polyline fill="none" stroke="#262626" stroke-linecap="butt" stroke-linejoin="miter" stroke-width="0.5" points="335.238,49.7925 337.099,49.7925"/>
   <polyline fill="none" stroke="#262626" stroke-linecap="butt" stroke-linejoin="miter" stroke-width="0.5" points="335.238,32.4 337.099,32.4"/>
   <text font-family="FreeSans" xml:space="preserve" font-size="10" font-weight="normal" font-style="normal" transform="translate(324.237,123.363) rotate(-0,6,-4)">
    <tspan fill="rgb(38,38,38)" x="0 " y="-0">0</tspan>
   </text>
   <text font-family="FreeSans" xml:space="preserve" font-size="10" font-weight="normal" font-style="normal" transform="translate(324.237,105.97) rotate(-0,6,-4)">
    <tspan fill="rgb(38,38,38)" x="0 " y="-0">1</tspan>
   </text>
   <text font-family="FreeSans" xml:space="preserve" font-size="10" font-weight="normal" font-style="normal" transform="translate(324.237,88.5775) rotate(-0,6,-4)">
    <tspan fill="rgb(38,38,38)" x="0 " y="-0">2</tspan>
   </text>
   <text font-family="FreeSans" xml:space="preserve" font-size="10" font-weight="normal" font-style="normal" transform="translate(324.237,71.185) rotate(-0,6,-4)">
    <tspan fill="rgb(38,38,38)" x="0 " y="-0">3</tspan>
   </text>
   <text font-family="FreeSans" xml:space="preserve" font-size="10" font-weight="normal" font-style="normal" transform="translate(324.237,53.7925) rotate(-0,6,-4)">
    <tspan fill="rgb(38,38,38)" x="0 " y="-0">4</tspan>
   </text>
   <text font-family="FreeSans" xml:space="preserve" font-size="10" font-weight="normal" font-style="normal" transform="translate(324.237,36.4) rotate(-0,6,-4)">
    <tspan fill="rgb(38,38,38)" x="0 " y="-0">5</tspan>
   </text>
   <polyline fill="none" stroke="#262626" stroke-dasharray="16,0" stroke-linecap="square" stroke-linejoin="miter" stroke-width="0.5" points="335.238,119.363 521.28,119.363"/>
   <polyline fill="none" stroke="#262626" stroke-dasharray="16,0" stroke-linecap="square" stroke-linejoin="miter" stroke-width="0.5" points="335.238,119.363 335.238,32.4"/>
   <text font-family="FreeSans" xml:space="preserve" font-size="11" font-weight="normal" font-style="normal" transform="translate(425.259,146.859) rotate(-0,3,-7)">
    <tspan fill="rgb(38,38,38)" x="0 " y="-0">n</tspan>
   </text>
   <text font-family="FreeSans" xml:space="preserve" font-size="11" font-weight="normal" font-style="normal" transform="translate(308.237,75.8813) rotate(-90,11,0)">
    <tspan fill="rgb(38,38,38)" x="0 " y="-7">x</tspan>
    <tspan fill="rgb(38,38,38)" x="5 " font-size="9" y="-0">2</tspan>
    <tspan fill="rgb(38,38,38)" x="10 13 19 " y="-7">[n]</tspan>
   </text>
   <text font-family="FreeSans" xml:space="preserve" font-size="11" font-weight="bold" font-style="normal" transform="translate(422.259,22.4) rotate(-0,6,0)">
    <tspan fill="rgb(0,0,0)" x="0 " y="-7">X</tspan>
    <tspan fill="rgb(0,0,0)" x="7 " font-size="9" y="-0">2</tspan>
   </text>
   <polyline fill="none" stroke="#0071bc" stroke-linecap="butt" stroke-linejoin="round" stroke-width="0.5" points="381.749,119.363 381.749,41.4147"/>
   <polyline fill="none" stroke="#0071bc" stroke-linecap="butt" stroke-linejoin="round" stroke-width="0.5" points="391.051,119.363 391.051,61.6174"/>
   <polyline fill="none" stroke="#0071bc" stroke-linecap="butt" stroke-linejoin="round" stroke-width="0.5" points="400.353,119.363 400.353,76.5839"/>
   <polyline fill="none" stroke="#0071bc" stroke-linecap="butt" stroke-linejoin="round" stroke-width="0.5" points="409.655,119.363 409.655,87.6713"/>
   <polyline fill="none" stroke="#0071bc" stroke-linecap="butt" stroke-linejoin="round" stroke-width="0.5" points="418.957,119.363 418.957,95.8851"/>
   <polyline fill="none" stroke="#0071bc" stroke-linecap="butt" stroke-linejoin="round" stroke-width="0.5" points="428.259,119.363 428.259,101.97"/>
   <polyline fill="none" stroke="#0071bc" stroke-linecap="butt" stroke-linejoin="round" stroke-width="0.5" points="437.561,119.363 437.561,106.478"/>
   <polyline fill="none" stroke="#0071bc" stroke-linecap="butt" stroke-linejoin="round" stroke-width="0.5" points="446.863,119.363 446.863,109.817"/>
   <polyline fill="none" stroke="#0071bc" stroke-linecap="butt" stroke-linejoin="round" stroke-width="0.5" points="456.165,119.363 456.165,112.291"/>
   <polyline fill="none" stroke="#0071bc" stroke-linecap="butt" stroke-linejoin="round" stroke-width="0.5" points="465.467,119.363 465.467,114.124"/>
   <polyline fill="none" stroke="#0071bc" stroke-linecap="butt" stroke-linejoin="round" stroke-width="0.5" points="474.77,119.363 474.77,115.482"/>
   <polyline fill="none" stroke="#0071bc" stroke-linecap="butt" stroke-linejoin="round" stroke-width="0.5" points="484.072,119.363 484.072,116.488"/>
   <polyline fill="none" stroke="#0071bc" stroke-linecap="butt" stroke-linejoin="round" stroke-width="0.5" points="493.374,119.363 493.374,117.233"/>
   <polyline fill="none" stroke="#0071bc" stroke-linecap="butt" stroke-linejoin="round" stroke-width="0.5" points="502.676,119.363 502.676,117.785"/>
   <polyline fill="none" stroke="#0071bc" stroke-linecap="butt" stroke-linejoin="round" stroke-width="0.5" points="511.978,119.363 511.978,118.194"/>
   <polyline fill="none" stroke="#0071bc" stroke-linecap="butt" stroke-linejoin="round" stroke-width="0.5" points="521.28,119.363 521.28,118.497"/>
   <polyline fill="none" stroke="#0071bc" stroke-linecap="round" stroke-linejoin="round" stroke-width="0.5" points="384.749,41.4147 384.176,43.1781 382.676,44.2679 380.822,44.2679 379.322,43.1781 378.749,41.4147 379.322,39.6514 380.822,38.5616 382.676,38.5616 384.176,39.6514 384.749,41.4147"/>
   <polyline fill="none" stroke="#0071bc" stroke-linecap="round" stroke-linejoin="round" stroke-width="0.5" points="394.051,61.6174 393.478,63.3807 391.978,64.4706 390.124,64.4706 388.624,63.3807 388.051,61.6174 388.624,59.854 390.124,58.7642 391.978,58.7642 393.478,59.854 394.051,61.6174"/>
   <polyline fill="none" stroke="#0071bc" stroke-linecap="round" stroke-linejoin="round" stroke-width="0.5" points="403.353,76.5839 402.78,78.3472 401.28,79.437 399.426,79.437 397.926,78.3472 397.353,76.5839 397.926,74.8205 399.426,73.7307 401.28,73.7307 402.78,74.8205 403.353,76.5839"/>
   <polyline fill="none" stroke="#0071bc" stroke-linecap="round" stroke-linejoin="round" stroke-width="0.5" points="412.655,87.6713 412.082,89.4347 410.582,90.5245 408.728,90.5245 407.228,89.4347 406.655,87.6713 407.228,85.908 408.728,84.8182 410.582,84.8182 412.082,85.908 412.655,87.6713"/>
   <polyline fill="none" stroke="#0071bc" stroke-linecap="round" stroke-linejoin="round" stroke-width="0.5" points="421.957,95.8851 421.384,97.6485 419.884,98.7383 418.03,98.7383 416.53,97.6485 415.957,95.8851 416.53,94.1218 418.03,93.032 419.884,93.032 421.384,94.1218 421.957,95.8851"/>
   <polyline fill="none" stroke="#0071bc" stroke-linecap="round" stroke-linejoin="round" stroke-width="0.5" points="431.259,101.97 430.686,103.733 429.186,104.823 427.332,104.823 425.832,103.733 425.259,101.97 425.832,100.207 427.332,99.1169 429.186,99.1169 430.686,100.207 431.259,101.97"/>
   <polyline fill="none" stroke="#0071bc" stroke-linecap="round" stroke-linejoin="round" stroke-width="0.5" points="440.561,106.478 439.988,108.241 438.488,109.331 436.634,109.331 435.134,108.241 434.561,106.478 435.134,104.715 436.634,103.625 438.488,103.625 439.988,104.715 440.561,106.478"/>
   <polyline fill="none" stroke="#0071bc" stroke-linecap="round" stroke-linejoin="round" stroke-width="0.5" points="449.863,109.817 449.29,111.581 447.79,112.671 445.936,112.671 444.436,111.581 443.863,109.817 444.436,108.054 445.936,106.964 447.79,106.964 449.29,108.054 449.863,109.817"/>
   <polyline fill="none" stroke="#0071bc" stroke-linecap="round" stroke-linejoin="round" stroke-width="0.5" points="459.165,112.291 458.592,114.055 457.092,115.144 455.238,115.144 453.738,114.055 453.165,112.291 453.738,110.528 455.238,109.438 457.092,109.438 458.592,110.528 459.165,112.291"/>
   <polyline fill="none" stroke="#0071bc" stroke-linecap="round" stroke-linejoin="round" stroke-width="0.5" points="468.467,114.124 467.895,115.887 466.395,116.977 464.54,116.977 463.04,115.887 462.467,114.124 463.04,112.361 464.54,111.271 466.395,111.271 467.895,112.361 468.467,114.124"/>
   <polyline fill="none" stroke="#0071bc" stroke-linecap="round" stroke-linejoin="round" stroke-width="0.5" points="477.77,115.482 477.197,117.245 475.697,118.335 473.842,118.335 472.342,117.245 471.77,115.482 472.342,113.718 473.842,112.629 475.697,112.629 477.197,113.718 477.77,115.482"/>
   <polyline fill="none" stroke="#0071bc" stroke-linecap="round" stroke-linejoin="round" stroke-width="0.5" points="487.072,116.488 486.499,118.251 484.999,119.341 483.145,119.341 481.645,118.251 481.072,116.488 481.645,114.724 483.145,113.634 484.999,113.634 486.499,114.724 487.072,116.488"/>
   <polyline fill="none" stroke="#0071bc" stroke-linecap="round" stroke-linejoin="round" stroke-width="0.5" points="496.374,117.233 495.801,118.996 494.301,120.086 492.447,120.086 490.947,118.996 490.374,117.233 490.947,115.469 492.447,114.38 494.301,114.38 495.801,115.469 496.374,117.233"/>
   <polyline fill="none" stroke="#0071bc" stroke-linecap="round" stroke-linejoin="round" stroke-width="0.5" points="505.676,117.785 505.103,119.548 503.603,120.638 501.749,120.638 500.249,119.548 499.676,117.785 500.249,116.021 501.749,114.932 503.603,114.932 505.103,116.021 505.676,117.785"/>
   <polyline fill="none" stroke="#0071bc" stroke-linecap="round" stroke-linejoin="round" stroke-width="0.5" points="514.978,118.194 514.405,119.957 512.905,121.047 511.051,121.047 509.551,119.957 508.978,118.194 509.551,116.43 511.051,115.341 512.905,115.341 514.405,116.43 514.978,118.194"/>
   <polyline fill="none" stroke="#0071bc" stroke-linecap="round" stroke-linejoin="round" stroke-width="0.5" points="524.28,118.497 523.707,120.26 522.207,121.35 520.353,121.35 518.853,120.26 518.28,118.497 518.853,116.733 520.353,115.643 522.207,115.643 523.707,116.733 524.28,118.497"/>
   <polyline fill="none" stroke="#000000" stroke-linecap="butt" stroke-linejoin="round" stroke-width="0.5" points="335.238,119.363 521.28,119.363"/>
  </g>
 </g>
</svg>
