<?xml version='1.0' encoding='UTF-8' standalone='no'?>
<svg height="432pt" width="576pt" viewBox="0 0 576 432" xmlns="http://www.w3.org/2000/svg" xmlns:xlink="http://www.w3.org/1999/xlink">
 <title>gl2ps_renderer figure</title>
 <desc>
Creator: GL2PS 1.4.0, (C) 1999-2017 C. Geuzaine
For: Octave
CreationDate: Mon Nov 11 20:30:00 2019
</desc>
 <defs/>
 <polygon fill="#ffffff" points="0,0 576,0 576,432 0,432"/>
 <g>
  <polygon fill="#ffffff" points="0,432 576,432 576,0 0,0" shape-rendering="crispEdges"/>
  <clipPath id="cp00576432">
   <polygon points="0,432 576,432 576,0 0,0"/>
  </clipPath>
  <g clip-path="url(#cp00576432)">
   <polygon fill="#ffffff" shape-rendering="crispEdges" points="74.88,119.416 260.922,119.416 260.922,32.4 74.88,32.4"/>
   <polyline fill="none" stroke="#262626" stroke-width="0.5" points="74.88,119.416 74.88,32.4" stroke-opacity="0.15" stroke-linecap="butt" stroke-linejoin="miter" stroke-dasharray="16,0"/>
   <polyline fill="none" stroke="#262626" stroke-width="0.5" points="121.39,119.416 121.39,32.4" stroke-opacity="0.15" stroke-linecap="butt" stroke-linejoin="miter" stroke-dasharray="16,0"/>
   <polyline fill="none" stroke="#262626" stroke-width="0.5" points="167.901,119.416 167.901,32.4" stroke-opacity="0.15" stroke-linecap="butt" stroke-linejoin="miter" stroke-dasharray="16,0"/>
   <polyline fill="none" stroke="#262626" stroke-width="0.5" points="214.411,119.416 214.411,32.4" stroke-opacity="0.15" stroke-linecap="butt" stroke-linejoin="miter" stroke-dasharray="16,0"/>
   <polyline fill="none" stroke="#262626" stroke-width="0.5" points="260.922,119.416 260.922,32.4" stroke-opacity="0.15" stroke-linecap="butt" stroke-linejoin="miter" stroke-dasharray="16,0"/>
   <polyline fill="none" stroke="#262626" stroke-width="0.5" points="74.88,119.416 74.88,117.555" stroke-linecap="butt" stroke-linejoin="miter"/>
   <polyline fill="none" stroke="#262626" stroke-width="0.5" points="121.39,119.416 121.39,117.555" stroke-linecap="butt" stroke-linejoin="miter"/>
   <polyline fill="none" stroke="#262626" stroke-width="0.5" points="167.901,119.416 167.901,117.555" stroke-linecap="butt" stroke-linejoin="miter"/>
   <polyline fill="none" stroke="#262626" stroke-width="0.5" points="214.411,119.416 214.411,117.555" stroke-linecap="butt" stroke-linejoin="miter"/>
   <polyline fill="none" stroke="#262626" stroke-width="0.5" points="260.922,119.416 260.922,117.555" stroke-linecap="butt" stroke-linejoin="miter"/>
   <text transform="translate(67.38,134.917) rotate(-0,7.5,-8)" font-family="FreeSans" font-style="normal" xml:space="preserve" font-size="10" font-weight="normal">
    <tspan fill="rgb(38,38,38)" x="0 3 9 " y="-0">-10</tspan>
   </text>
   <text transform="translate(116.89,134.917) rotate(-0,4.5,-8)" font-family="FreeSans" font-style="normal" xml:space="preserve" font-size="10" font-weight="normal">
    <tspan fill="rgb(38,38,38)" x="0 3 " y="-0">-5</tspan>
   </text>
   <text transform="translate(164.901,134.917) rotate(-0,3,-8)" font-family="FreeSans" font-style="normal" xml:space="preserve" font-size="10" font-weight="normal">
    <tspan fill="rgb(38,38,38)" x="0 " y="-0">0</tspan>
   </text>
   <text transform="translate(211.411,134.917) rotate(-0,3,-8)" font-family="FreeSans" font-style="normal" xml:space="preserve" font-size="10" font-weight="normal">
    <tspan fill="rgb(38,38,38)" x="0 " y="-0">5</tspan>
   </text>
   <text transform="translate(254.922,134.917) rotate(-0,6,-8)" font-family="FreeSans" font-style="normal" xml:space="preserve" font-size="10" font-weight="normal">
    <tspan fill="rgb(38,38,38)" x="0 6 " y="-0">10</tspan>
   </text>
   <polyline fill="none" stroke="#262626" stroke-width="0.5" points="74.88,119.416 260.922,119.416" stroke-opacity="0.15" stroke-linecap="butt" stroke-linejoin="miter" stroke-dasharray="16,0"/>
   <polyline fill="none" stroke="#262626" stroke-width="0.5" points="74.88,102.013 260.922,102.013" stroke-opacity="0.15" stroke-linecap="butt" stroke-linejoin="miter" stroke-dasharray="16,0"/>
   <polyline fill="none" stroke="#262626" stroke-width="0.5" points="74.88,84.6095 260.922,84.6095" stroke-opacity="0.15" stroke-linecap="butt" stroke-linejoin="miter" stroke-dasharray="16,0"/>
   <polyline fill="none" stroke="#262626" stroke-width="0.5" points="74.88,67.2064 260.922,67.2064" stroke-opacity="0.15" stroke-linecap="butt" stroke-linejoin="miter" stroke-dasharray="16,0"/>
   <polyline fill="none" stroke="#262626" stroke-width="0.5" points="74.88,49.8032 260.922,49.8032" stroke-opacity="0.15" stroke-linecap="butt" stroke-linejoin="miter" stroke-dasharray="16,0"/>
   <polyline fill="none" stroke="#262626" stroke-width="0.5" points="74.88,32.4 260.922,32.4" stroke-opacity="0.15" stroke-linecap="butt" stroke-linejoin="miter" stroke-dasharray="16,0"/>
   <polyline fill="none" stroke="#262626" stroke-width="0.5" points="74.88,119.416 76.7408,119.416" stroke-linecap="butt" stroke-linejoin="miter"/>
   <polyline fill="none" stroke="#262626" stroke-width="0.5" points="74.88,102.013 76.7408,102.013" stroke-linecap="butt" stroke-linejoin="miter"/>
   <polyline fill="none" stroke="#262626" stroke-width="0.5" points="74.88,84.6095 76.7408,84.6095" stroke-linecap="butt" stroke-linejoin="miter"/>
   <polyline fill="none" stroke="#262626" stroke-width="0.5" points="74.88,67.2064 76.7408,67.2064" stroke-linecap="butt" stroke-linejoin="miter"/>
   <polyline fill="none" stroke="#262626" stroke-width="0.5" points="74.88,49.8032 76.7408,49.8032" stroke-linecap="butt" stroke-linejoin="miter"/>
   <polyline fill="none" stroke="#262626" stroke-width="0.5" points="74.88,32.4 76.7408,32.4" stroke-linecap="butt" stroke-linejoin="miter"/>
   <text transform="translate(60.8789,123.416) rotate(-0,9,-4)" font-family="FreeSans" font-style="normal" xml:space="preserve" font-size="10" font-weight="normal">
    <tspan fill="rgb(38,38,38)" x="0 3 " y="-0">-1</tspan>
   </text>
   <text transform="translate(63.8789,106.013) rotate(-0,6,-4)" font-family="FreeSans" font-style="normal" xml:space="preserve" font-size="10" font-weight="normal">
    <tspan fill="rgb(38,38,38)" x="0 " y="-0">0</tspan>
   </text>
   <text transform="translate(63.8789,88.6095) rotate(-0,6,-4)" font-family="FreeSans" font-style="normal" xml:space="preserve" font-size="10" font-weight="normal">
    <tspan fill="rgb(38,38,38)" x="0 " y="-0">1</tspan>
   </text>
   <text transform="translate(63.8789,71.2064) rotate(-0,6,-4)" font-family="FreeSans" font-style="normal" xml:space="preserve" font-size="10" font-weight="normal">
    <tspan fill="rgb(38,38,38)" x="0 " y="-0">2</tspan>
   </text>
   <text transform="translate(63.8789,53.8032) rotate(-0,6,-4)" font-family="FreeSans" font-style="normal" xml:space="preserve" font-size="10" font-weight="normal">
    <tspan fill="rgb(38,38,38)" x="0 " y="-0">3</tspan>
   </text>
   <text transform="translate(63.8789,36.4) rotate(-0,6,-4)" font-family="FreeSans" font-style="normal" xml:space="preserve" font-size="10" font-weight="normal">
    <tspan fill="rgb(38,38,38)" x="0 " y="-0">4</tspan>
   </text>
   <polyline fill="none" stroke="#262626" stroke-width="0.5" points="74.88,119.416 260.922,119.416" stroke-linecap="square" stroke-linejoin="miter" stroke-dasharray="16,0"/>
   <polyline fill="none" stroke="#262626" stroke-width="0.5" points="74.88,119.416 74.88,32.4" stroke-linecap="square" stroke-linejoin="miter" stroke-dasharray="16,0"/>
   <text transform="translate(164.901,146.917) rotate(-0,3,-7)" font-family="FreeSans" font-style="normal" xml:space="preserve" font-size="11" font-weight="normal">
    <tspan fill="rgb(38,38,38)" x="0 " y="-0">n</tspan>
   </text>
   <text transform="translate(44.8789,75.9079) rotate(-90,11,0)" font-family="FreeSans" font-style="normal" xml:space="preserve" font-size="11" font-weight="normal">
    <tspan fill="rgb(38,38,38)" x="0 " y="-7">x</tspan>
    <tspan fill="rgb(38,38,38)" font-size="9" x="5 " y="-0">1</tspan>
    <tspan fill="rgb(38,38,38)" x="10 13 19 " y="-7">[n]</tspan>
   </text>
   <text transform="translate(161.901,22.4) rotate(-0,6,0)" font-family="FreeSans" font-style="normal" xml:space="preserve" font-size="11" font-weight="bold">
    <tspan fill="rgb(0,0,0)" x="0 " y="-7">X</tspan>
    <tspan fill="rgb(0,0,0)" font-size="9" x="7 " y="-0">1</tspan>
   </text>
   <polyline fill="none" stroke="#0071bc" stroke-width="0.5" points="121.39,102.013 121.39,102.013" stroke-linecap="butt" stroke-linejoin="round"/>
   <polyline fill="none" stroke="#0071bc" stroke-width="0.5" points="130.693,102.013 130.693,102.013" stroke-linecap="butt" stroke-linejoin="round"/>
   <polyline fill="none" stroke="#0071bc" stroke-width="0.5" points="139.995,102.013 139.995,102.013" stroke-linecap="butt" stroke-linejoin="round"/>
   <polyline fill="none" stroke="#0071bc" stroke-width="0.5" points="149.297,102.013 149.297,49.8032" stroke-linecap="butt" stroke-linejoin="round"/>
   <polyline fill="none" stroke="#0071bc" stroke-width="0.5" points="158.599,102.013 158.599,102.013" stroke-linecap="butt" stroke-linejoin="round"/>
   <polyline fill="none" stroke="#0071bc" stroke-width="0.5" points="167.901,102.013 167.901,102.013" stroke-linecap="butt" stroke-linejoin="round"/>
   <polyline fill="none" stroke="#0071bc" stroke-width="0.5" points="177.203,102.013 177.203,67.2064" stroke-linecap="butt" stroke-linejoin="round"/>
   <polyline fill="none" stroke="#0071bc" stroke-width="0.5" points="186.505,102.013 186.505,102.013" stroke-linecap="butt" stroke-linejoin="round"/>
   <polyline fill="none" stroke="#0071bc" stroke-width="0.5" points="195.807,102.013 195.807,102.013" stroke-linecap="butt" stroke-linejoin="round"/>
   <polyline fill="none" stroke="#0071bc" stroke-width="0.5" points="205.109,102.013 205.109,119.416" stroke-linecap="butt" stroke-linejoin="round"/>
   <polyline fill="none" stroke="#0071bc" stroke-width="0.5" points="214.411,102.013 214.411,102.013" stroke-linecap="butt" stroke-linejoin="round"/>
   <polyline fill="none" stroke="#0071bc" stroke-width="0.5" points="223.714,102.013 223.714,102.013" stroke-linecap="butt" stroke-linejoin="round"/>
   <polyline fill="none" stroke="#0071bc" stroke-width="0.5" points="233.016,102.013 233.016,32.4" stroke-linecap="butt" stroke-linejoin="round"/>
   <polyline fill="none" stroke="#0071bc" stroke-width="0.5" points="242.318,102.013 242.318,102.013" stroke-linecap="butt" stroke-linejoin="round"/>
   <polyline fill="none" stroke="#0071bc" stroke-width="0.5" points="251.62,102.013 251.62,102.013" stroke-linecap="butt" stroke-linejoin="round"/>
   <polyline fill="none" stroke="#0071bc" stroke-width="0.5" points="260.922,102.013 260.922,102.013" stroke-linecap="butt" stroke-linejoin="round"/>
   <polyline fill="none" stroke="#0071bc" stroke-width="0.5" points="124.39,102.013 123.818,103.776 122.318,104.866 120.463,104.866 118.963,103.776 118.39,102.013 118.963,100.249 120.463,99.1595 122.318,99.1595 123.818,100.249 124.39,102.013" stroke-linecap="round" stroke-linejoin="round"/>
   <polyline fill="none" stroke="#0071bc" stroke-width="0.5" points="133.693,102.013 133.12,103.776 131.62,104.866 129.766,104.866 128.266,103.776 127.693,102.013 128.266,100.249 129.766,99.1595 131.62,99.1595 133.12,100.249 133.693,102.013" stroke-linecap="round" stroke-linejoin="round"/>
   <polyline fill="none" stroke="#0071bc" stroke-width="0.5" points="142.995,102.013 142.422,103.776 140.922,104.866 139.068,104.866 137.568,103.776 136.995,102.013 137.568,100.249 139.068,99.1595 140.922,99.1595 142.422,100.249 142.995,102.013" stroke-linecap="round" stroke-linejoin="round"/>
   <polyline fill="none" stroke="#0071bc" stroke-width="0.5" points="152.297,49.8032 151.724,51.5665 150.224,52.6563 148.37,52.6563 146.87,51.5665 146.297,49.8032 146.87,48.0398 148.37,46.95 150.224,46.95 151.724,48.0398 152.297,49.8032" stroke-linecap="round" stroke-linejoin="round"/>
   <polyline fill="none" stroke="#0071bc" stroke-width="0.5" points="161.599,102.013 161.026,103.776 159.526,104.866 157.672,104.866 156.172,103.776 155.599,102.013 156.172,100.249 157.672,99.1595 159.526,99.1595 161.026,100.249 161.599,102.013" stroke-linecap="round" stroke-linejoin="round"/>
   <polyline fill="none" stroke="#0071bc" stroke-width="0.5" points="170.901,102.013 170.328,103.776 168.828,104.866 166.974,104.866 165.474,103.776 164.901,102.013 165.474,100.249 166.974,99.1595 168.828,99.1595 170.328,100.249 170.901,102.013" stroke-linecap="round" stroke-linejoin="round"/>
   <polyline fill="none" stroke="#0071bc" stroke-width="0.5" points="180.203,67.2064 179.63,68.9697 178.13,70.0595 176.276,70.0595 174.776,68.9697 174.203,67.2064 174.776,65.443 176.276,64.3532 178.13,64.3532 179.63,65.443 180.203,67.2064" stroke-linecap="round" stroke-linejoin="round"/>
   <polyline fill="none" stroke="#0071bc" stroke-width="0.5" points="189.505,102.013 188.932,103.776 187.432,104.866 185.578,104.866 184.078,103.776 183.505,102.013 184.078,100.249 185.578,99.1595 187.432,99.1595 188.932,100.249 189.505,102.013" stroke-linecap="round" stroke-linejoin="round"/>
   <polyline fill="none" stroke="#0071bc" stroke-width="0.5" points="198.807,102.013 198.234,103.776 196.734,104.866 194.88,104.866 193.38,103.776 192.807,102.013 193.38,100.249 194.88,99.1595 196.734,99.1595 198.234,100.249 198.807,102.013" stroke-linecap="round" stroke-linejoin="round"/>
   <polyline fill="none" stroke="#0071bc" stroke-width="0.5" points="208.109,119.416 207.536,121.179 206.036,122.269 204.182,122.269 202.682,121.179 202.109,119.416 202.682,117.653 204.182,116.563 206.036,116.563 207.536,117.653 208.109,119.416" stroke-linecap="round" stroke-linejoin="round"/>
   <polyline fill="none" stroke="#0071bc" stroke-width="0.5" points="217.411,102.013 216.838,103.776 215.338,104.866 213.484,104.866 211.984,103.776 211.411,102.013 211.984,100.249 213.484,99.1595 215.338,99.1595 216.838,100.249 217.411,102.013" stroke-linecap="round" stroke-linejoin="round"/>
   <polyline fill="none" stroke="#0071bc" stroke-width="0.5" points="226.714,102.013 226.141,103.776 224.641,104.866 222.786,104.866 221.286,103.776 220.714,102.013 221.286,100.249 222.786,99.1595 224.641,99.1595 226.141,100.249 226.714,102.013" stroke-linecap="round" stroke-linejoin="round"/>
   <polyline fill="none" stroke="#0071bc" stroke-width="0.5" points="236.016,32.4 235.443,34.1634 233.943,35.2532 232.089,35.2532 230.589,34.1634 230.016,32.4 230.589,30.6366 232.089,29.5468 233.943,29.5468 235.443,30.6366 236.016,32.4" stroke-linecap="round" stroke-linejoin="round"/>
   <polyline fill="none" stroke="#0071bc" stroke-width="0.5" points="245.318,102.013 244.745,103.776 243.245,104.866 241.391,104.866 239.891,103.776 239.318,102.013 239.891,100.249 241.391,99.1595 243.245,99.1595 244.745,100.249 245.318,102.013" stroke-linecap="round" stroke-linejoin="round"/>
   <polyline fill="none" stroke="#0071bc" stroke-width="0.5" points="254.62,102.013 254.047,103.776 252.547,104.866 250.693,104.866 249.193,103.776 248.62,102.013 249.193,100.249 250.693,99.1595 252.547,99.1595 254.047,100.249 254.62,102.013" stroke-linecap="round" stroke-linejoin="round"/>
   <polyline fill="none" stroke="#0071bc" stroke-width="0.5" points="263.922,102.013 263.349,103.776 261.849,104.866 259.995,104.866 258.495,103.776 257.922,102.013 258.495,100.249 259.995,99.1595 261.849,99.1595 263.349,100.249 263.922,102.013" stroke-linecap="round" stroke-linejoin="round"/>
   <polyline fill="none" stroke="#000000" stroke-width="0.5" points="74.88,102.013 260.922,102.013" stroke-linecap="butt" stroke-linejoin="round"/>
  </g>
  <clipPath id="cp00576432">
   <polygon points="0,432 576,432 576,0 0,0"/>
  </clipPath>
  <g clip-path="url(#cp00576432)">
   <polygon fill="#ffffff" shape-rendering="crispEdges" points="335.238,119.363 521.28,119.363 521.28,50.0019 335.238,50.0019"/>
   <polyline fill="none" stroke="#262626" stroke-width="0.5" points="335.238,119.363 335.238,50.0019" stroke-opacity="0.15" stroke-linecap="butt" stroke-linejoin="miter" stroke-dasharray="16,0"/>
   <polyline fill="none" stroke="#262626" stroke-width="0.5" points="381.749,119.363 381.749,50.0019" stroke-opacity="0.15" stroke-linecap="butt" stroke-linejoin="miter" stroke-dasharray="16,0"/>
   <polyline fill="none" stroke="#262626" stroke-width="0.5" points="428.259,119.363 428.259,50.0019" stroke-opacity="0.15" stroke-linecap="butt" stroke-linejoin="miter" stroke-dasharray="16,0"/>
   <polyline fill="none" stroke="#262626" stroke-width="0.5" points="474.77,119.363 474.77,50.0019" stroke-opacity="0.15" stroke-linecap="butt" stroke-linejoin="miter" stroke-dasharray="16,0"/>
   <polyline fill="none" stroke="#262626" stroke-width="0.5" points="521.28,119.363 521.28,50.0019" stroke-opacity="0.15" stroke-linecap="butt" stroke-linejoin="miter" stroke-dasharray="16,0"/>
   <polyline fill="none" stroke="#262626" stroke-width="0.5" points="335.238,119.363 335.238,117.492" stroke-linecap="butt" stroke-linejoin="miter"/>
   <polyline fill="none" stroke="#262626" stroke-width="0.5" points="381.749,119.363 381.749,117.492" stroke-linecap="butt" stroke-linejoin="miter"/>
   <polyline fill="none" stroke="#262626" stroke-width="0.5" points="428.259,119.363 428.259,117.492" stroke-linecap="butt" stroke-linejoin="miter"/>
   <polyline fill="none" stroke="#262626" stroke-width="0.5" points="474.77,119.363 474.77,117.492" stroke-linecap="butt" stroke-linejoin="miter"/>
   <polyline fill="none" stroke="#262626" stroke-width="0.5" points="521.28,119.363 521.28,117.492" stroke-linecap="butt" stroke-linejoin="miter"/>
   <text transform="translate(327.738,134.902) rotate(-0,7.5,-8)" font-family="FreeSans" font-style="normal" xml:space="preserve" font-size="10" font-weight="normal">
    <tspan fill="rgb(38,38,38)" x="0 3 9 " y="-0">-10</tspan>
   </text>
   <text transform="translate(377.249,134.902) rotate(-0,4.5,-8)" font-family="FreeSans" font-style="normal" xml:space="preserve" font-size="10" font-weight="normal">
    <tspan fill="rgb(38,38,38)" x="0 3 " y="-0">-5</tspan>
   </text>
   <text transform="translate(425.259,134.902) rotate(-0,3,-8)" font-family="FreeSans" font-style="normal" xml:space="preserve" font-size="10" font-weight="normal">
    <tspan fill="rgb(38,38,38)" x="0 " y="-0">0</tspan>
   </text>
   <text transform="translate(471.77,134.902) rotate(-0,3,-8)" font-family="FreeSans" font-style="normal" xml:space="preserve" font-size="10" font-weight="normal">
    <tspan fill="rgb(38,38,38)" x="0 " y="-0">5</tspan>
   </text>
   <text transform="translate(515.28,134.902) rotate(-0,6,-8)" font-family="FreeSans" font-style="normal" xml:space="preserve" font-size="10" font-weight="normal">
    <tspan fill="rgb(38,38,38)" x="0 6 " y="-0">10</tspan>
   </text>
   <polyline fill="none" stroke="#262626" stroke-width="0.5" points="335.238,119.363 521.28,119.363" stroke-opacity="0.15" stroke-linecap="butt" stroke-linejoin="miter" stroke-dasharray="16,0"/>
   <polyline fill="none" stroke="#262626" stroke-width="0.5" points="335.238,105.49 521.28,105.49" stroke-opacity="0.15" stroke-linecap="butt" stroke-linejoin="miter" stroke-dasharray="16,0"/>
   <polyline fill="none" stroke="#262626" stroke-width="0.5" points="335.238,91.6183 521.28,91.6183" stroke-opacity="0.15" stroke-linecap="butt" stroke-linejoin="miter" stroke-dasharray="16,0"/>
   <polyline fill="none" stroke="#262626" stroke-width="0.5" points="335.238,77.7462 521.28,77.7462" stroke-opacity="0.15" stroke-linecap="butt" stroke-linejoin="miter" stroke-dasharray="16,0"/>
   <polyline fill="none" stroke="#262626" stroke-width="0.5" points="335.238,63.8741 521.28,63.8741" stroke-opacity="0.15" stroke-linecap="butt" stroke-linejoin="miter" stroke-dasharray="16,0"/>
   <polyline fill="none" stroke="#262626" stroke-width="0.5" points="335.238,50.0019 521.28,50.0019" stroke-opacity="0.15" stroke-linecap="butt" stroke-linejoin="miter" stroke-dasharray="16,0"/>
   <polyline fill="none" stroke="#262626" stroke-width="0.5" points="335.238,119.363 337.099,119.363" stroke-linecap="butt" stroke-linejoin="miter"/>
   <polyline fill="none" stroke="#262626" stroke-width="0.5" points="335.238,105.49 337.099,105.49" stroke-linecap="butt" stroke-linejoin="miter"/>
   <polyline fill="none" stroke="#262626" stroke-width="0.5" points="335.238,91.6183 337.099,91.6183" stroke-linecap="butt" stroke-linejoin="miter"/>
   <polyline fill="none" stroke="#262626" stroke-width="0.5" points="335.238,77.7462 337.099,77.7462" stroke-linecap="butt" stroke-linejoin="miter"/>
   <polyline fill="none" stroke="#262626" stroke-width="0.5" points="335.238,63.8741 337.099,63.8741" stroke-linecap="butt" stroke-linejoin="miter"/>
   <polyline fill="none" stroke="#262626" stroke-width="0.5" points="335.238,50.0019 337.099,50.0019" stroke-linecap="butt" stroke-linejoin="miter"/>
   <text transform="translate(324.237,123.363) rotate(-0,6,-4)" font-family="FreeSans" font-style="normal" xml:space="preserve" font-size="10" font-weight="normal">
    <tspan fill="rgb(38,38,38)" x="0 " y="-0">0</tspan>
   </text>
   <text transform="translate(324.237,109.49) rotate(-0,6,-4)" font-family="FreeSans" font-style="normal" xml:space="preserve" font-size="10" font-weight="normal">
    <tspan fill="rgb(38,38,38)" x="0 " y="-0">1</tspan>
   </text>
   <text transform="translate(324.237,95.6183) rotate(-0,6,-4)" font-family="FreeSans" font-style="normal" xml:space="preserve" font-size="10" font-weight="normal">
    <tspan fill="rgb(38,38,38)" x="0 " y="-0">2</tspan>
   </text>
   <text transform="translate(324.237,81.7462) rotate(-0,6,-4)" font-family="FreeSans" font-style="normal" xml:space="preserve" font-size="10" font-weight="normal">
    <tspan fill="rgb(38,38,38)" x="0 " y="-0">3</tspan>
   </text>
   <text transform="translate(324.237,67.874) rotate(-0,6,-4)" font-family="FreeSans" font-style="normal" xml:space="preserve" font-size="10" font-weight="normal">
    <tspan fill="rgb(38,38,38)" x="0 " y="-0">4</tspan>
   </text>
   <text transform="translate(324.237,54.0019) rotate(-0,6,-4)" font-family="FreeSans" font-style="normal" xml:space="preserve" font-size="10" font-weight="normal">
    <tspan fill="rgb(38,38,38)" x="0 " y="-0">5</tspan>
   </text>
   <polyline fill="none" stroke="#262626" stroke-width="0.5" points="335.238,119.363 521.28,119.363" stroke-linecap="square" stroke-linejoin="miter" stroke-dasharray="16,0"/>
   <polyline fill="none" stroke="#262626" stroke-width="0.5" points="335.238,119.363 335.238,50.0019" stroke-linecap="square" stroke-linejoin="miter" stroke-dasharray="16,0"/>
   <text transform="translate(425.259,146.902) rotate(-0,3,-7)" font-family="FreeSans" font-style="normal" xml:space="preserve" font-size="11" font-weight="normal">
    <tspan fill="rgb(38,38,38)" x="0 " y="-0">n</tspan>
   </text>
   <text transform="translate(308.237,84.6822) rotate(-90,11,0)" font-family="FreeSans" font-style="normal" xml:space="preserve" font-size="11" font-weight="normal">
    <tspan fill="rgb(38,38,38)" x="0 " y="-7">x</tspan>
    <tspan fill="rgb(38,38,38)" font-size="9" x="5 " y="-0">2</tspan>
    <tspan fill="rgb(38,38,38)" x="10 13 19 " y="-7">[n]</tspan>
   </text>
   <text transform="translate(422.259,40.0019) rotate(-0,6,0)" font-family="FreeSans" font-style="normal" xml:space="preserve" font-size="11" font-weight="bold">
    <tspan fill="rgb(0,0,0)" x="0 " y="-7">X</tspan>
    <tspan fill="rgb(0,0,0)" font-size="9" x="7 " y="-0">2</tspan>
   </text>
   <polyline fill="none" stroke="#0071bc" stroke-width="0.5" points="381.749,119.363 381.749,57.192" stroke-linecap="butt" stroke-linejoin="round"/>
   <polyline fill="none" stroke="#0071bc" stroke-width="0.5" points="391.051,119.363 391.051,73.3055" stroke-linecap="butt" stroke-linejoin="round"/>
   <polyline fill="none" stroke="#0071bc" stroke-width="0.5" points="400.353,119.363 400.353,85.2426" stroke-linecap="butt" stroke-linejoin="round"/>
   <polyline fill="none" stroke="#0071bc" stroke-width="0.5" points="409.655,119.363 409.655,94.0859" stroke-linecap="butt" stroke-linejoin="round"/>
   <polyline fill="none" stroke="#0071bc" stroke-width="0.5" points="418.957,119.363 418.957,100.637" stroke-linecap="butt" stroke-linejoin="round"/>
   <polyline fill="none" stroke="#0071bc" stroke-width="0.5" points="428.259,119.363 428.259,105.49" stroke-linecap="butt" stroke-linejoin="round"/>
   <polyline fill="none" stroke="#0071bc" stroke-width="0.5" points="437.561,119.363 437.561,109.086" stroke-linecap="butt" stroke-linejoin="round"/>
   <polyline fill="none" stroke="#0071bc" stroke-width="0.5" points="446.863,119.363 446.863,111.749" stroke-linecap="butt" stroke-linejoin="round"/>
   <polyline fill="none" stroke="#0071bc" stroke-width="0.5" points="456.165,119.363 456.165,113.723" stroke-linecap="butt" stroke-linejoin="round"/>
   <polyline fill="none" stroke="#0071bc" stroke-width="0.5" points="465.467,119.363 465.467,115.184" stroke-linecap="butt" stroke-linejoin="round"/>
   <polyline fill="none" stroke="#0071bc" stroke-width="0.5" points="474.77,119.363 474.77,116.267" stroke-linecap="butt" stroke-linejoin="round"/>
   <polyline fill="none" stroke="#0071bc" stroke-width="0.5" points="484.072,119.363 484.072,117.07" stroke-linecap="butt" stroke-linejoin="round"/>
   <polyline fill="none" stroke="#0071bc" stroke-width="0.5" points="493.374,119.363 493.374,117.664" stroke-linecap="butt" stroke-linejoin="round"/>
   <polyline fill="none" stroke="#0071bc" stroke-width="0.5" points="502.676,119.363 502.676,118.104" stroke-linecap="butt" stroke-linejoin="round"/>
   <polyline fill="none" stroke="#0071bc" stroke-width="0.5" points="511.978,119.363 511.978,118.43" stroke-linecap="butt" stroke-linejoin="round"/>
   <polyline fill="none" stroke="#0071bc" stroke-width="0.5" points="521.28,119.363 521.28,118.672" stroke-linecap="butt" stroke-linejoin="round"/>
   <polyline fill="none" stroke="#0071bc" stroke-width="0.5" points="384.749,57.192 384.176,58.9554 382.676,60.0452 380.822,60.0452 379.322,58.9554 378.749,57.192 379.322,55.4286 380.822,54.3388 382.676,54.3388 384.176,55.4286 384.749,57.192" stroke-linecap="round" stroke-linejoin="round"/>
   <polyline fill="none" stroke="#0071bc" stroke-width="0.5" points="394.051,73.3055 393.478,75.0688 391.978,76.1586 390.124,76.1586 388.624,75.0688 388.051,73.3055 388.624,71.5421 390.124,70.4523 391.978,70.4523 393.478,71.5421 394.051,73.3055" stroke-linecap="round" stroke-linejoin="round"/>
   <polyline fill="none" stroke="#0071bc" stroke-width="0.5" points="403.353,85.2426 402.78,87.006 401.28,88.0958 399.426,88.0958 397.926,87.006 397.353,85.2426 397.926,83.4792 399.426,82.3895 401.28,82.3895 402.78,83.4792 403.353,85.2426" stroke-linecap="round" stroke-linejoin="round"/>
   <polyline fill="none" stroke="#0071bc" stroke-width="0.5" points="412.655,94.0859 412.082,95.8492 410.582,96.9391 408.728,96.9391 407.228,95.8492 406.655,94.0859 407.228,92.3225 408.728,91.2327 410.582,91.2327 412.082,92.3225 412.655,94.0859" stroke-linecap="round" stroke-linejoin="round"/>
   <polyline fill="none" stroke="#0071bc" stroke-width="0.5" points="421.957,100.637 421.384,102.401 419.884,103.49 418.03,103.49 416.53,102.401 415.957,100.637 416.53,98.8738 418.03,97.784 419.884,97.784 421.384,98.8738 421.957,100.637" stroke-linecap="round" stroke-linejoin="round"/>
   <polyline fill="none" stroke="#0071bc" stroke-width="0.5" points="431.259,105.49 430.686,107.254 429.186,108.344 427.332,108.344 425.832,107.254 425.259,105.49 425.832,103.727 427.332,102.637 429.186,102.637 430.686,103.727 431.259,105.49" stroke-linecap="round" stroke-linejoin="round"/>
   <polyline fill="none" stroke="#0071bc" stroke-width="0.5" points="440.561,109.086 439.988,110.849 438.488,111.939 436.634,111.939 435.134,110.849 434.561,109.086 435.134,107.322 436.634,106.233 438.488,106.233 439.988,107.322 440.561,109.086" stroke-linecap="round" stroke-linejoin="round"/>
   <polyline fill="none" stroke="#0071bc" stroke-width="0.5" points="449.863,111.749 449.29,113.513 447.79,114.603 445.936,114.603 444.436,113.513 443.863,111.749 444.436,109.986 445.936,108.896 447.79,108.896 449.29,109.986 449.863,111.749" stroke-linecap="round" stroke-linejoin="round"/>
   <polyline fill="none" stroke="#0071bc" stroke-width="0.5" points="459.165,113.723 458.592,115.486 457.092,116.576 455.238,116.576 453.738,115.486 453.165,113.723 453.738,111.959 455.238,110.869 457.092,110.869 458.592,111.959 459.165,113.723" stroke-linecap="round" stroke-linejoin="round"/>
   <polyline fill="none" stroke="#0071bc" stroke-width="0.5" points="468.467,115.184 467.895,116.948 466.395,118.038 464.54,118.038 463.04,116.948 462.467,115.184 463.04,113.421 464.54,112.331 466.395,112.331 467.895,113.421 468.467,115.184" stroke-linecap="round" stroke-linejoin="round"/>
   <polyline fill="none" stroke="#0071bc" stroke-width="0.5" points="477.77,116.267 477.197,118.031 475.697,119.12 473.842,119.12 472.342,118.031 471.77,116.267 472.342,114.504 473.842,113.414 475.697,113.414 477.197,114.504 477.77,116.267" stroke-linecap="round" stroke-linejoin="round"/>
   <polyline fill="none" stroke="#0071bc" stroke-width="0.5" points="487.072,117.069 486.499,118.833 484.999,119.923 483.145,119.923 481.645,118.833 481.072,117.069 481.645,115.306 483.145,114.216 484.999,114.216 486.499,115.306 487.072,117.069" stroke-linecap="round" stroke-linejoin="round"/>
   <polyline fill="none" stroke="#0071bc" stroke-width="0.5" points="496.374,117.664 495.801,119.427 494.301,120.517 492.447,120.517 490.947,119.427 490.374,117.664 490.947,115.9 492.447,114.811 494.301,114.811 495.801,115.9 496.374,117.664" stroke-linecap="round" stroke-linejoin="round"/>
   <polyline fill="none" stroke="#0071bc" stroke-width="0.5" points="505.676,118.104 505.103,119.867 503.603,120.957 501.749,120.957 500.249,119.867 499.676,118.104 500.249,116.341 501.749,115.251 503.603,115.251 505.103,116.341 505.676,118.104" stroke-linecap="round" stroke-linejoin="round"/>
   <polyline fill="none" stroke="#0071bc" stroke-width="0.5" points="514.978,118.43 514.405,120.194 512.905,121.283 511.051,121.283 509.551,120.194 508.978,118.43 509.551,116.667 511.051,115.577 512.905,115.577 514.405,116.667 514.978,118.43" stroke-linecap="round" stroke-linejoin="round"/>
   <polyline fill="none" stroke="#0071bc" stroke-width="0.5" points="524.28,118.672 523.707,120.435 522.207,121.525 520.353,121.525 518.853,120.435 518.28,118.672 518.853,116.909 520.353,115.819 522.207,115.819 523.707,116.909 524.28,118.672" stroke-linecap="round" stroke-linejoin="round"/>
   <polyline fill="none" stroke="#000000" stroke-width="0.5" points="335.238,119.363 521.28,119.363" stroke-linecap="butt" stroke-linejoin="round"/>
  </g>
  <clipPath id="cp00576432">
   <polygon points="0,432 576,432 576,0 0,0"/>
  </clipPath>
  <g clip-path="url(#cp00576432)">
   <polygon fill="#ffffff" shape-rendering="crispEdges" points="74.88,251.921 260.922,251.921 260.922,182.561 74.88,182.561"/>
   <polyline fill="none" stroke="#262626" stroke-width="0.5" points="74.88,251.921 74.88,182.561" stroke-opacity="0.15" stroke-linecap="butt" stroke-linejoin="miter" stroke-dasharray="16,0"/>
   <polyline fill="none" stroke="#262626" stroke-width="0.5" points="105.887,251.921 105.887,182.561" stroke-opacity="0.15" stroke-linecap="butt" stroke-linejoin="miter" stroke-dasharray="16,0"/>
   <polyline fill="none" stroke="#262626" stroke-width="0.5" points="136.894,251.921 136.894,182.561" stroke-opacity="0.15" stroke-linecap="butt" stroke-linejoin="miter" stroke-dasharray="16,0"/>
   <polyline fill="none" stroke="#262626" stroke-width="0.5" points="167.901,251.921 167.901,182.561" stroke-opacity="0.15" stroke-linecap="butt" stroke-linejoin="miter" stroke-dasharray="16,0"/>
   <polyline fill="none" stroke="#262626" stroke-width="0.5" points="198.908,251.921 198.908,182.561" stroke-opacity="0.15" stroke-linecap="butt" stroke-linejoin="miter" stroke-dasharray="16,0"/>
   <polyline fill="none" stroke="#262626" stroke-width="0.5" points="229.915,251.921 229.915,182.561" stroke-opacity="0.15" stroke-linecap="butt" stroke-linejoin="miter" stroke-dasharray="16,0"/>
   <polyline fill="none" stroke="#262626" stroke-width="0.5" points="260.922,251.921 260.922,182.561" stroke-opacity="0.15" stroke-linecap="butt" stroke-linejoin="miter" stroke-dasharray="16,0"/>
   <polyline fill="none" stroke="#262626" stroke-width="0.5" points="74.88,251.921 74.88,250.051" stroke-linecap="butt" stroke-linejoin="miter"/>
   <polyline fill="none" stroke="#262626" stroke-width="0.5" points="105.887,251.921 105.887,250.051" stroke-linecap="butt" stroke-linejoin="miter"/>
   <polyline fill="none" stroke="#262626" stroke-width="0.5" points="136.894,251.921 136.894,250.051" stroke-linecap="butt" stroke-linejoin="miter"/>
   <polyline fill="none" stroke="#262626" stroke-width="0.5" points="167.901,251.921 167.901,250.051" stroke-linecap="butt" stroke-linejoin="miter"/>
   <polyline fill="none" stroke="#262626" stroke-width="0.5" points="198.908,251.921 198.908,250.051" stroke-linecap="butt" stroke-linejoin="miter"/>
   <polyline fill="none" stroke="#262626" stroke-width="0.5" points="229.915,251.921 229.915,250.051" stroke-linecap="butt" stroke-linejoin="miter"/>
   <polyline fill="none" stroke="#262626" stroke-width="0.5" points="260.922,251.921 260.922,250.051" stroke-linecap="butt" stroke-linejoin="miter"/>
   <text transform="translate(71.88,267.46) rotate(-0,3,-8)" font-family="FreeSans" font-style="normal" xml:space="preserve" font-size="10" font-weight="normal">
    <tspan fill="rgb(38,38,38)" x="0 " y="-0">0</tspan>
   </text>
   <text transform="translate(99.887,267.46) rotate(-0,6,-8)" font-family="FreeSans" font-style="normal" xml:space="preserve" font-size="10" font-weight="normal">
    <tspan fill="rgb(38,38,38)" x="0 6 " y="-0">50</tspan>
   </text>
   <text transform="translate(127.894,267.46) rotate(-0,9,-8)" font-family="FreeSans" font-style="normal" xml:space="preserve" font-size="10" font-weight="normal">
    <tspan fill="rgb(38,38,38)" x="0 6 12 " y="-0">100</tspan>
   </text>
   <text transform="translate(158.901,267.46) rotate(-0,9,-8)" font-family="FreeSans" font-style="normal" xml:space="preserve" font-size="10" font-weight="normal">
    <tspan fill="rgb(38,38,38)" x="0 6 12 " y="-0">150</tspan>
   </text>
   <text transform="translate(189.908,267.46) rotate(-0,9,-8)" font-family="FreeSans" font-style="normal" xml:space="preserve" font-size="10" font-weight="normal">
    <tspan fill="rgb(38,38,38)" x="0 6 12 " y="-0">200</tspan>
   </text>
   <text transform="translate(220.915,267.46) rotate(-0,9,-8)" font-family="FreeSans" font-style="normal" xml:space="preserve" font-size="10" font-weight="normal">
    <tspan fill="rgb(38,38,38)" x="0 6 12 " y="-0">250</tspan>
   </text>
   <text transform="translate(251.922,267.46) rotate(-0,9,-8)" font-family="FreeSans" font-style="normal" xml:space="preserve" font-size="10" font-weight="normal">
    <tspan fill="rgb(38,38,38)" x="0 6 12 " y="-0">300</tspan>
   </text>
   <polyline fill="none" stroke="#262626" stroke-width="0.5" points="74.88,251.921 260.922,251.921" stroke-opacity="0.15" stroke-linecap="butt" stroke-linejoin="miter" stroke-dasharray="16,0"/>
   <polyline fill="none" stroke="#262626" stroke-width="0.5" points="74.88,234.581 260.922,234.581" stroke-opacity="0.15" stroke-linecap="butt" stroke-linejoin="miter" stroke-dasharray="16,0"/>
   <polyline fill="none" stroke="#262626" stroke-width="0.5" points="74.88,217.241 260.922,217.241" stroke-opacity="0.15" stroke-linecap="butt" stroke-linejoin="miter" stroke-dasharray="16,0"/>
   <polyline fill="none" stroke="#262626" stroke-width="0.5" points="74.88,199.901 260.922,199.901" stroke-opacity="0.15" stroke-linecap="butt" stroke-linejoin="miter" stroke-dasharray="16,0"/>
   <polyline fill="none" stroke="#262626" stroke-width="0.5" points="74.88,182.561 260.922,182.561" stroke-opacity="0.15" stroke-linecap="butt" stroke-linejoin="miter" stroke-dasharray="16,0"/>
   <polyline fill="none" stroke="#262626" stroke-width="0.5" points="74.88,251.921 76.7409,251.921" stroke-linecap="butt" stroke-linejoin="miter"/>
   <polyline fill="none" stroke="#262626" stroke-width="0.5" points="74.88,234.581 76.7409,234.581" stroke-linecap="butt" stroke-linejoin="miter"/>
   <polyline fill="none" stroke="#262626" stroke-width="0.5" points="74.88,217.241 76.7409,217.241" stroke-linecap="butt" stroke-linejoin="miter"/>
   <polyline fill="none" stroke="#262626" stroke-width="0.5" points="74.88,199.901 76.7409,199.901" stroke-linecap="butt" stroke-linejoin="miter"/>
   <polyline fill="none" stroke="#262626" stroke-width="0.5" points="74.88,182.561 76.7409,182.561" stroke-linecap="butt" stroke-linejoin="miter"/>
   <text transform="translate(60.8789,255.921) rotate(-0,9,-4)" font-family="FreeSans" font-style="normal" xml:space="preserve" font-size="10" font-weight="normal">
    <tspan fill="rgb(38,38,38)" x="0 3 " y="-0">-2</tspan>
   </text>
   <text transform="translate(60.8789,238.581) rotate(-0,9,-4)" font-family="FreeSans" font-style="normal" xml:space="preserve" font-size="10" font-weight="normal">
    <tspan fill="rgb(38,38,38)" x="0 3 " y="-0">-1</tspan>
   </text>
   <text transform="translate(63.8789,221.241) rotate(-0,6,-4)" font-family="FreeSans" font-style="normal" xml:space="preserve" font-size="10" font-weight="normal">
    <tspan fill="rgb(38,38,38)" x="0 " y="-0">0</tspan>
   </text>
   <text transform="translate(63.8789,203.901) rotate(-0,6,-4)" font-family="FreeSans" font-style="normal" xml:space="preserve" font-size="10" font-weight="normal">
    <tspan fill="rgb(38,38,38)" x="0 " y="-0">1</tspan>
   </text>
   <text transform="translate(63.8789,186.561) rotate(-0,6,-4)" font-family="FreeSans" font-style="normal" xml:space="preserve" font-size="10" font-weight="normal">
    <tspan fill="rgb(38,38,38)" x="0 " y="-0">2</tspan>
   </text>
   <polyline fill="none" stroke="#262626" stroke-width="0.5" points="74.88,251.921 260.922,251.921" stroke-linecap="square" stroke-linejoin="miter" stroke-dasharray="16,0"/>
   <polyline fill="none" stroke="#262626" stroke-width="0.5" points="74.88,251.921 74.88,182.561" stroke-linecap="square" stroke-linejoin="miter" stroke-dasharray="16,0"/>
   <text transform="translate(164.901,279.46) rotate(-0,3,-7)" font-family="FreeSans" font-style="normal" xml:space="preserve" font-size="11" font-weight="normal">
    <tspan fill="rgb(38,38,38)" x="0 " y="-0">n</tspan>
   </text>
   <text transform="translate(44.8789,217.241) rotate(-90,11,0)" font-family="FreeSans" font-style="normal" xml:space="preserve" font-size="11" font-weight="normal">
    <tspan fill="rgb(38,38,38)" x="0 " y="-7">x</tspan>
    <tspan fill="rgb(38,38,38)" font-size="9" x="5 " y="-0">3</tspan>
    <tspan fill="rgb(38,38,38)" x="10 13 19 " y="-7">[n]</tspan>
   </text>
   <text transform="translate(161.901,172.561) rotate(-0,6,0)" font-family="FreeSans" font-style="normal" xml:space="preserve" font-size="11" font-weight="bold">
    <tspan fill="rgb(0,0,0)" x="0 " y="-7">X</tspan>
    <tspan fill="rgb(0,0,0)" font-size="9" x="7 " y="-0">3</tspan>
   </text>
   <polyline fill="none" stroke="#0071bc" stroke-width="0.5" points="74.88,217.241 75.5002,213.842 76.1203,210.475 76.7404,207.174 77.3606,203.969 77.9807,200.893 78.6009,197.974 79.221,195.24 79.8411,192.718 80.4613,190.433 81.0814,188.405 81.7015,186.656 82.3217,185.201 82.9418,184.054 83.562,183.227 84.1821,182.728 84.8022,182.561 85.4224,182.728 86.0425,183.227 86.6627,184.054 87.2828,185.201 87.903,186.656 88.5231,188.405 89.1432,190.433 89.7634,192.718 90.3835,195.24 91.0037,197.974 91.6238,200.893 92.2439,203.969 92.8641,207.174 93.4842,210.475 94.1043,213.842 94.7245,217.241 95.3446,220.64 95.9648,224.007 96.5849,227.308 97.205,230.513 97.8252,233.589 98.4453,236.508 99.0655,239.242 99.6856,241.764 100.306,244.049 100.926,246.077 101.546,247.826 102.166,249.281 102.786,250.428 103.406,251.255 104.027,251.754 104.647,251.921 105.267,251.754 105.887,251.255 106.507,250.428 107.127,249.281 107.747,247.826 108.368,246.077 108.988,244.049 109.608,241.764 110.228,239.242 110.848,236.508 111.468,233.589 112.088,230.513 112.709,227.308 113.329,224.007 113.949,220.64 114.569,217.241 115.189,213.842 115.809,210.475 116.429,207.174 117.05,203.969 117.67,200.893 118.29,197.974 118.91,195.24 119.53,192.718 120.15,190.433 120.77,188.405 121.39,186.656 122.011,185.201 122.631,184.054 123.251,183.227 123.871,182.728 124.491,182.561 125.111,182.728 125.731,183.227 126.352,184.054 126.972,185.201 127.592,186.656 128.212,188.405 128.832,190.433 129.452,192.718 130.072,195.24 130.693,197.974 131.313,200.893 131.933,203.969 132.553,207.174 133.173,210.475 133.793,213.842 134.413,217.241 135.034,220.64 135.654,224.007 136.274,227.308 136.894,230.513 137.514,233.589 138.134,236.508 138.754,239.242 139.375,241.764 139.995,244.049 140.615,246.077 141.235,247.826 141.855,249.281 142.475,250.428 143.095,251.255 143.716,251.754 144.336,251.921 144.956,251.754 145.576,251.255 146.196,250.428 146.816,249.281 147.436,247.826 148.056,246.077 148.677,244.049 149.297,241.764 149.917,239.242 150.537,236.508 151.157,233.589 151.777,230.513 152.397,227.308 153.018,224.007 153.638,220.64 154.258,217.241 154.878,213.842 155.498,210.475 156.118,207.174 156.738,203.969 157.359,200.893 157.979,197.974 158.599,195.24 159.219,192.718 159.839,190.433 160.459,188.405 161.079,186.656 161.7,185.201 162.32,184.054 162.94,183.227 163.56,182.728 164.18,182.561 164.8,182.728 165.42,183.227 166.041,184.054 166.661,185.201 167.281,186.656 167.901,188.405 168.521,190.433 169.141,192.718 169.761,195.24 170.382,197.974 171.002,200.893 171.622,203.969 172.242,207.174 172.862,210.475 173.482,213.842 174.102,217.241 174.723,220.64 175.343,224.007 175.963,227.308 176.583,230.513 177.203,233.589 177.823,236.508 178.443,239.242 179.063,241.764 179.684,244.049 180.304,246.077 180.924,247.826 181.544,249.281 182.164,250.428 182.784,251.255 183.404,251.754 184.025,251.921 184.645,251.754 185.265,251.255 185.885,250.428 186.505,249.281 187.125,247.826 187.745,246.077 188.366,244.049 188.986,241.764 189.606,239.242 190.226,236.508 190.846,233.589 191.466,230.513 192.086,227.308 192.707,224.007 193.327,220.64 193.947,217.241 194.567,213.842 195.187,210.475 195.807,207.174 196.427,203.969 197.048,200.893 197.668,197.974 198.288,195.24 198.908,192.718 199.528,190.433 200.148,188.405 200.768,186.656 201.389,185.201 202.009,184.054 202.629,183.227 203.249,182.728 203.869,182.561 204.489,182.728 205.109,183.227 205.729,184.054 206.35,185.201 206.97,186.656 207.59,188.405 208.21,190.433 208.83,192.718 209.45,195.24 210.07,197.974 210.691,200.893 211.311,203.969 211.931,207.174 212.551,210.475 213.171,213.842 213.791,217.241 214.411,220.64 215.032,224.007 215.652,227.308 216.272,230.513 216.892,233.589 217.512,236.508 218.132,239.242 218.752,241.764 219.373,244.049 219.993,246.077 220.613,247.826 221.233,249.281 221.853,250.428 222.473,251.255 223.093,251.754 223.714,251.921 224.334,251.754 224.954,251.255 225.574,250.428 226.194,249.281 226.814,247.826 227.434,246.077 228.055,244.049 228.675,241.764 229.295,239.242 229.915,236.508 230.535,233.589 231.155,230.513 231.775,227.308 232.395,224.007 233.016,220.64 233.636,217.241" stroke-linecap="butt" stroke-linejoin="round"/>
  </g>
 </g>
</svg>
